<svg width="20" height="21" viewBox="0 0 20 21" fill="none" xmlns="http://www.w3.org/2000/svg">
<path d="M20 10.4481C20 9.75902 19.9333 9.04771 19.8222 8.38086H10.1973V12.3153H15.7099C15.4876 13.5823 14.7541 14.6937 13.6649 15.405L16.9547 17.9613C18.8886 16.1608 20 13.5378 20 10.4481Z" fill="#4280EF"/>
<path d="M10.1974 20.4061C12.9537 20.4061 15.2655 19.4948 16.9548 17.9388L13.665 15.4048C12.7536 16.0272 11.5755 16.3828 10.1974 16.3828C7.52998 16.3828 5.28491 14.5823 4.46246 12.1816L1.08374 14.7824C2.81756 18.2278 6.32964 20.4061 10.1974 20.4061Z" fill="#34A353"/>
<path d="M4.46235 12.1582C4.04001 10.8912 4.04001 9.51302 4.46235 8.246L1.08363 5.62305C-0.361211 8.51274 -0.361211 11.9137 1.08363 14.7811L4.46235 12.1582Z" fill="#F6B704"/>
<path d="M10.1974 4.04596C11.6422 4.02373 13.0648 4.57944 14.1096 5.57972L17.0215 2.64557C15.1765 0.911752 12.7314 -0.0218404 10.1974 0.00038795C6.32964 0.00038795 2.81756 2.17877 1.08374 5.62417L4.46246 8.24712C5.28491 5.82423 7.52998 4.04596 10.1974 4.04596Z" fill="#E54335"/>
</svg>
