<svg width="375" height="137" viewBox="0 0 375 137" fill="none" xmlns="http://www.w3.org/2000/svg">
<rect x="0.322754" y="89.9165" width="374.355" height="40.1959" rx="2" fill="#E2EEF7"/>
<path d="M0.322754 129.951H374.677C371.309 133.267 366.796 135.166 362.069 135.254L304.698 136.327H58.2759L11.4495 135.126C7.1837 135.017 3.1545 133.143 0.322754 129.951Z" fill="#A8A8A8"/>
<path d="M81.5803 68.4505L83.6938 129.33L82.704 130.832L75.2261 130.498L75.4508 68.1688L76.6234 67.1545L81.5803 68.4505Z" fill="#895606"/>
<path d="M82.7509 67.4352L83.693 129.33L76.3198 129.029L76.6226 67.1545L82.7509 67.4352Z" fill="#996407"/>
<path d="M85.6881 68.3681L90.85 129.065L89.9371 130.615L82.4521 130.656L79.5527 68.3937L80.6717 67.3213L85.6881 68.3681Z" fill="#895606"/>
<path d="M86.8072 67.2952L90.8501 129.065L83.4711 129.133L80.6719 67.3208L86.8072 67.2952Z" fill="#996407"/>
<path d="M14.957 131.346H15.8769V43.8481H14.957V131.346Z" fill="#74717D"/>
<path d="M2.95557 131.311H3.8741V43.8127H2.95557V131.311Z" fill="#74717D"/>
<path d="M15.4479 91.2688H3.41602V92.1201H15.4479V91.2688Z" fill="#74717D"/>
<path d="M15.4479 103.453H3.41602V104.306H15.4479V103.453Z" fill="#74717D"/>
<path d="M3.46105 103.502L3.37012 103.406L15.4033 92.0728L15.4929 92.1676L3.46105 103.502Z" fill="#74717D"/>
<path d="M15.4479 115.615H3.41602V116.467H15.4479V115.615Z" fill="#74717D"/>
<path d="M3.46105 115.664L3.37012 115.568L15.4033 104.234L15.4929 104.329L3.46105 115.664Z" fill="#74717D"/>
<path d="M15.4479 127.561H3.41602V128.414H15.4479V127.561Z" fill="#74717D"/>
<path d="M3.46105 127.61L3.37012 127.514L15.4033 116.18L15.4929 116.275L3.46105 127.61Z" fill="#74717D"/>
<path d="M15.4479 78.238H3.41602V79.0907H15.4479V78.238Z" fill="#74717D"/>
<path d="M15.4479 66.4795H3.41602V67.3308H15.4479V66.4795Z" fill="#74717D"/>
<path d="M3.46105 78.287L3.37012 78.1908L15.4033 66.8574L15.4929 66.9523L3.46105 78.287Z" fill="#74717D"/>
<path d="M15.4479 54.7188H3.41602V55.5714H15.4479V54.7188Z" fill="#74717D"/>
<path d="M3.46105 66.964L3.37012 66.8691L15.4033 55.5344L15.4929 55.6306L3.46105 66.964Z" fill="#74717D"/>
<path d="M3.71462 55.1947L3.625 55.0985L15.6568 43.7651L15.7478 43.8613L3.71462 55.1947Z" fill="#74717D"/>
<path d="M3.46105 90.8947L3.37012 90.7985L15.4033 79.4651L15.4929 79.56L3.46105 90.8947Z" fill="#74717D"/>
<path d="M78.9384 44.0301H0V43.0088H78.9384V44.0301Z" fill="#74717D"/>
<path d="M82.1676 132.224H63.3618V115.016H82.1676V132.224Z" fill="#A0A0A3"/>
<g style="mix-blend-mode:multiply" opacity="0.302">
<path d="M69.3032 132.224H63.207V115.016H69.3032V132.224Z" fill="#8A888E"/>
</g>
<path d="M67.5859 123.343H64.4858V117.85H67.5859V123.343Z" fill="#A8A8A8"/>
<path fill-rule="evenodd" clip-rule="evenodd" d="M42.9215 131.029C42.5137 131.029 42.1451 130.824 41.9563 130.458C41.639 129.846 41.8982 129.074 42.7048 128.224C43.2041 127.698 43.8744 127.175 44.6732 126.673C44.5737 125.741 44.3436 124.641 43.9403 123.359C41.9228 116.95 38.5569 112.042 36.0891 109.052C33.4147 105.814 31.1916 104.07 31.1693 104.052C31.1447 104.033 31.1402 103.999 31.1592 103.975C31.1782 103.95 31.214 103.947 31.2385 103.966C31.2598 103.982 33.494 105.734 36.1751 108.981C38.6496 111.978 42.0233 116.9 44.0464 123.326C44.4441 124.59 44.6743 125.679 44.7759 126.609C46.6583 125.446 49.2243 124.407 51.9356 123.755C56.6711 122.615 61.1363 122.799 64.5078 124.272C64.5357 124.285 64.5491 124.318 64.5369 124.345C64.5234 124.373 64.4911 124.386 64.4631 124.374C61.114 122.91 56.6745 122.728 51.9624 123.862C49.2802 124.508 46.6762 125.571 44.7893 126.74C45.0351 129.26 44.3112 130.566 43.4141 130.93C43.2499 130.996 43.0824 131.029 42.9215 131.029ZM44.6854 126.804C43.9113 127.293 43.2633 127.799 42.7863 128.3C42.0144 129.113 41.7619 129.841 42.0557 130.407C42.2925 130.864 42.8455 131.041 43.3717 130.827C44.2263 130.48 44.9133 129.228 44.6854 126.804Z" fill="#0A2355"/>
<path d="M80.5831 132.124L78.8572 122.165L74.478 122.682L75.1148 126.459C76.0699 127.4 76.8195 128.315 77.3647 129.207C78.1813 130.546 78.3679 132.239 80.5831 132.124Z" fill="#2242A3"/>
<path d="M60.8824 121.964L59.7139 107.032L50.3154 109.565C52.9038 121.325 54.7504 127.483 55.8542 128.039C57.8024 129.021 64.4728 128.982 75.8664 127.923L75.2911 122.065L60.8824 121.964Z" fill="#7EB8E8"/>
<path d="M29.6753 132.082H39.8646L40.0925 127.714L36.2306 127.696C35.1347 128.47 34.098 129.049 33.1194 129.43C31.6504 130.001 29.9367 129.898 29.6753 132.082Z" fill="#2242A3"/>
<path d="M46.6602 89.9167L48.0789 93.3935L46.6602 89.9167Z" fill="#EA8622"/>
<path d="M59.5475 90.8065L60.334 100.623L49.433 103.275L47.2434 92.7786C45.6817 95.5386 44.1959 97.4764 42.7894 98.5921C40.8456 99.7909 38.0573 100.904 34.4221 101.931L32.6973 97.9262C35.3225 97.0121 37.7121 95.9374 39.8625 94.7032C42.7224 89.7196 44.9321 86.3835 46.4927 84.6961C47.4289 83.6834 55.747 80.7263 59.0146 81.4287C62.2822 82.1301 64.836 89.9511 66.1375 92.8019C66.8815 95.338 63.4563 98.0569 62.2219 96.0493C61.7561 95.5485 60.8646 93.8013 59.5475 90.8065Z" fill="#2E93F7"/>
<g style="mix-blend-mode:multiply" opacity="0.302">
<path d="M58.7769 100.968L59.2528 86.5232L60.3341 100.623L58.7769 100.968Z" fill="#91C8FC"/>
</g>
<path d="M52.8998 79.4734C53.3667 79.2795 53.6829 79.0789 53.8482 78.8717C54.0136 78.6646 54.2035 78.3443 54.4157 77.9111L54.0493 79.1509C54.4984 79.0955 54.9296 78.7798 55.3418 78.2036C55.9596 77.3394 56.2813 76.2293 55.6501 75.5767C55.2301 75.1424 54.7788 74.7823 54.2984 74.4986C54.3062 72.9442 53.9108 71.8816 53.1098 71.3088C52.3099 70.736 51.4017 70.6662 50.384 71.1005C49.8422 70.1798 49.1518 69.9073 48.3162 70.2829C47.4795 70.6574 47.0404 71.2401 46.9991 72.029L48.2056 71.4673C47.008 72.1387 46.2506 72.8666 45.9333 73.6511C45.4362 74.8831 45.825 76.1251 47.0996 77.3793L52.8998 79.4734Z" fill="#0A2355"/>
<path d="M54.2459 81.774L53.2673 78.4457C54.189 78.1798 54.4169 76.601 53.6807 76.2708C53.1221 76.0193 52.587 76.1102 52.0776 76.5412C51.3526 76.3805 50.7281 76.0415 50.2064 75.523C49.6847 75.0044 49.2647 74.3086 48.9463 73.4333C48.1621 73.6062 47.6225 74.0405 47.3276 74.7374C46.8852 75.7822 47.532 78.5388 48.1967 80.0456C48.6391 81.0505 49.3049 81.4749 50.193 81.3198L50.6667 82.7579C50.3226 82.8776 49.9785 83.0006 49.6355 83.1258C49.6713 84.1949 50.7259 84.4265 52.7993 83.8238C54.7129 83.2665 55.4469 82.5396 55.0034 81.6444L54.2459 81.774Z" fill="#F4B7A2"/>
<g style="mix-blend-mode:multiply">
<path d="M50.3799 81.402C50.3464 81.4032 50.3184 81.3777 50.3151 81.3455C50.3128 81.3112 50.3385 81.2813 50.3721 81.2791C50.4346 81.2735 51.8835 81.1372 52.1684 79.3058C52.1729 79.2725 52.2041 79.2493 52.2388 79.2537C52.2734 79.2593 52.2969 79.2914 52.2913 79.3246C51.9919 81.2558 50.3989 81.4009 50.3821 81.402C50.381 81.402 50.3799 81.402 50.3799 81.402Z" fill="#F4B7A2"/>
</g>
<g style="mix-blend-mode:multiply">
<path d="M49.1314 79.8896C48.9728 79.894 48.8611 79.8575 48.8588 79.8563C48.8264 79.8453 48.8086 79.8098 48.8197 79.7777C48.8309 79.7455 48.8678 79.7289 48.8991 79.7389C48.9248 79.7478 49.5168 79.9383 49.8866 79.2281C49.9022 79.1971 49.9391 79.186 49.9704 79.2015C50.0005 79.2171 50.0128 79.2547 49.9972 79.2846C49.7414 79.7755 49.3783 79.8818 49.1314 79.8896Z" fill="#DB9A89"/>
</g>
<path d="M48.8409 76.4924L48.7515 76.4059C48.7682 76.3893 49.1585 76.0044 49.8004 76.1364L49.7747 76.2573C49.2021 76.1408 48.8555 76.478 48.8409 76.4924Z" fill="#0A2355"/>
<path d="M47.3011 76.7779L47.2295 76.6758C47.2418 76.667 47.5325 76.4718 47.9989 76.5328L47.9821 76.6548C47.5661 76.6004 47.3033 76.7757 47.3011 76.7779Z" fill="#0A2355"/>
<g style="mix-blend-mode:multiply">
<path d="M49.0397 79.0757C48.9805 79.0768 48.9234 79.0624 48.8709 79.0313C48.5555 78.8461 48.5097 78.103 48.5075 78.0709C48.5052 78.0365 48.5321 78.0076 48.5667 78.0054H48.5678C48.6014 78.0043 48.6305 78.0298 48.6327 78.0642C48.6439 78.2605 48.7199 78.7984 48.9346 78.9248C48.9961 78.9614 49.0677 78.9603 49.1505 78.9204C49.1806 78.906 49.2187 78.9193 49.2332 78.9503C49.2477 78.9803 49.2343 79.018 49.2041 79.0324C49.1471 79.059 49.0923 79.0734 49.0397 79.0757Z" fill="#F4B7A2"/>
</g>
<path d="M49.3303 77.1439C49.2934 76.9897 49.3125 76.8522 49.3728 76.8389C49.4332 76.8245 49.5126 76.9376 49.5495 77.0929C49.5864 77.247 49.5674 77.3834 49.5059 77.3978C49.4455 77.4123 49.3673 77.298 49.3303 77.1439Z" fill="#0A2355"/>
<path d="M47.658 77.5167C47.6211 77.3625 47.6401 77.2261 47.7005 77.2117C47.7609 77.1973 47.8403 77.3115 47.8772 77.4656C47.9141 77.6198 47.8951 77.7573 47.8336 77.7718C47.7732 77.7851 47.6949 77.6719 47.658 77.5167Z" fill="#0A2355"/>
<g style="mix-blend-mode:multiply">
<path d="M52.6116 77.2902C52.5981 77.2913 52.5847 77.288 52.5735 77.2791C52.5456 77.2603 52.5389 77.2214 52.559 77.1937C52.5747 77.1704 52.9638 76.6336 53.4279 76.8122C53.4592 76.8255 53.4749 76.861 53.4625 76.8932C53.4502 76.9253 53.4145 76.9408 53.382 76.9275C53.0097 76.7834 52.6641 77.2603 52.6608 77.2647C52.6485 77.2813 52.6306 77.2902 52.6116 77.2902Z" fill="#F4B7A2"/>
</g>
<path d="M60.0259 93.3612L57.146 93.5473L56.65 81.3643L55.0033 81.6446L55.2457 93.657L50.4354 94.4348L49.6355 83.1259L47.8783 83.8616L48.6547 94.8758L47.2918 95.1151L48.9965 102.842C44.719 103.27 41.4078 103.903 39.0619 104.74C37.3616 105.347 36.7103 107.997 36.6723 109.79L34.8838 128.462L40.7811 128.719C42.4334 119.101 43.1818 113.327 43.0254 111.394C51.6933 110.903 56.8879 110.208 58.6105 109.307C61.5341 107.78 62.0055 102.464 60.0259 93.3612Z" fill="#91C8FC"/>
<path fill-rule="evenodd" clip-rule="evenodd" d="M48.4715 94.3228L48.2983 91.1152L50.4689 91L50.6421 94.2064L48.4715 94.3228ZM48.4156 91.2205L48.5776 94.2053L50.5248 94.1023L50.3628 91.1163L48.4156 91.2205Z" fill="#0A2355"/>
<path fill-rule="evenodd" clip-rule="evenodd" d="M55.1483 93.4921L54.9751 90.2856L57.1446 90.1704L57.3177 93.3768L55.1483 93.4921ZM55.0924 90.3898L55.2533 93.3757L57.2004 93.2716L57.0396 90.2867L55.0924 90.3898Z" fill="#0A2355"/>
<path d="M31.2041 104.009L30.3416 104.753L24.4834 98.0758L25.3447 97.3313L31.2041 104.009Z" fill="#74717D"/>
<path d="M15.7789 99.299L15.6304 99.1328L21.6394 93.8877L25.0467 97.7456L24.8791 97.8918L21.6182 94.2013L15.7789 99.299Z" fill="#424242"/>
<path d="M26.9888 109.287L10.5625 95.4167L10.6351 95.3325L27.0614 109.202L26.9888 109.287Z" fill="#F9A600"/>
<path d="M14.1896 106.217L14.0801 106.194L16.9556 92.5913L17.065 92.6146L14.1896 106.217Z" fill="#F9A600"/>
<path d="M9.68555 99.6278V99.517L20.7731 99.4373L20.7742 99.5481L9.68555 99.6278Z" fill="#F9A600"/>
<path d="M44.6475 73.7284L56.3706 75.9366C55.6836 75.6374 55.3607 75.3582 55.4032 75.099C55.6289 73.7207 55.7138 70.4899 51.834 69.5947C47.6682 68.6341 46.2394 71.7707 45.8082 73.221C45.7255 73.4991 45.339 73.6686 44.6475 73.7284Z" fill="#91C8FC"/>
<path d="M49.9223 86.0818L52.5408 85.0602C52.9765 84.8907 53.1921 84.4021 53.0201 83.97L48.6286 72.886C48.4566 72.4528 47.9651 72.2401 47.5283 72.4107L44.9097 73.4311C44.4729 73.6007 44.2584 74.0893 44.4305 74.5214L48.8219 85.6064C48.994 86.0385 49.4855 86.2513 49.9223 86.0818Z" fill="#74717D"/>
<path d="M48.4659 77.7082L55.8858 74.1628C56.0568 74.0918 56.1372 73.8979 56.0657 73.7295L55.8948 73.3229C55.8233 73.1534 55.6278 73.0736 55.458 73.1445L48.0369 76.69C47.8671 76.7609 47.7866 76.9548 47.8581 77.1232L48.0291 77.5298C48.0994 77.6993 48.2949 77.7791 48.4659 77.7082Z" fill="#74717D"/>
<g style="mix-blend-mode:multiply" opacity="0.302">
<path d="M47.244 92.7782L46.4967 88.917L46.0923 94.6341L47.244 92.7782Z" fill="#2E93F7"/>
</g>
<path d="M35.1276 96.21L36.9475 101.663C32.651 102.495 30.1184 103.22 29.3498 103.837C27.2541 104.329 25.9694 102.539 24.9171 101.393C23.8647 100.247 26.042 98.4558 27.0877 98.9787C27.1346 98.1179 24.4825 99.0208 24.1675 97.2957C24.2222 96.4349 25.498 96.7163 28.3679 97.5107C29.9777 97.9572 32.2309 97.5229 35.1276 96.21Z" fill="#2242A3"/>
<path d="M56.4297 99.6036L61.5774 94.5424C64.4049 92.7431 65.9253 92.1637 66.1376 92.8018C66.4582 93.7591 67.6803 96.3296 66.1755 97.453C64.8015 98.4768 62.2633 100.236 58.5601 102.729L56.4297 99.6036Z" fill="#2E93F7"/>
<path d="M57.0733 98.2112L60.0214 102.68C57.2654 104.041 55.173 105.358 53.7465 106.628C50.6911 109.349 49.9951 109.949 47.7274 107.909C46.7052 106.304 49.1204 104.474 50.1292 103.591C51.0899 102.61 48.3228 103.53 47.7631 103.259C46.789 102.788 47.6346 101.69 50.2275 101.654C51.5323 101.636 53.8146 100.488 57.0733 98.2112Z" fill="#2242A3"/>
<path d="M45.8377 78.0761L48.2429 77.1387C48.454 77.0567 48.5579 76.8208 48.4753 76.6125L48.3055 76.1859C48.2228 75.9765 47.986 75.8746 47.7748 75.9565L45.3696 76.8939L45.8377 78.0761Z" fill="#4C4A52"/>
<path d="M18.8629 91.6783L18.7612 91.6317L20.2839 88.3799L20.3855 88.4264L18.8629 91.6783Z" fill="#F9A600"/>
<path d="M21.3563 115.039L18.7612 109.267L18.8629 109.222L21.458 114.994L21.3563 115.039Z" fill="#F9A600"/>
<rect x="210.827" y="103.799" width="14.2058" height="1.80706" fill="#D3D3D3"/>
<path d="M225.033 103.799H232.378V105.606H225.033V103.799Z" fill="#BFBFBF"/>
<rect x="213.249" y="105.606" width="1.29143" height="26.1202" fill="#D3D3D3"/>
<rect x="218.737" y="105.606" width="1.29143" height="24.1489" fill="#BFBFBF"/>
<rect x="222.127" y="105.574" width="1.29143" height="26.1202" fill="#D3D3D3"/>
<rect x="228.746" y="105.606" width="1.29143" height="23.9846" fill="#BFBFBF"/>
<path d="M322.565 102.772H268.62V100.57H322.565V102.772Z" fill="#CAC9D3"/>
<path d="M266.036 107.189H322.536V102.83H266.036V107.189Z" fill="#DBE2EC"/>
<path d="M269.566 41.0029H318.833V100.614H269.566V41.0029Z" fill="#CAC9D3"/>
<path d="M271.589 43.438H316.829V98.1777H271.589V43.438Z" fill="#D5E8F7"/>
<path d="M296.436 98.9523H294.165V43.438H296.436V98.9523Z" fill="#CAC9D3"/>
<path d="M233.813 45.0386L249.995 85.2306L238.637 90.3568L230.128 70.1672L224.117 72.8145L215.992 52.4249L226.135 48.7135L227.856 52.4249L230.128 49.8188L232.993 48.1779L233.813 45.0386Z" fill="#D2E9FC"/>
<path d="M251.506 125.66H223.579V124.946H251.506V125.66Z" fill="#0A2355"/>
<path d="M249.624 127.409H225.46V125.455H249.624V127.409Z" fill="#0A2355"/>
<path d="M247.962 130.801H227.124V126.958H247.962V130.801Z" fill="#0A2355"/>
<path d="M251.17 132.36L243.048 132.372L242.918 123.561L251.041 123.55L251.17 132.36Z" fill="#74717D"/>
<path d="M243.016 123.923C242.981 123.913 242.953 123.883 242.947 123.842C242.936 123.748 242.675 121.534 243.907 120.012C244.587 119.173 245.59 118.718 246.887 118.656C248.145 118.599 249.138 118.955 249.841 119.719C251.192 121.188 250.992 123.611 250.983 123.714C250.979 123.767 250.934 123.806 250.883 123.801C250.832 123.795 250.795 123.749 250.8 123.696C250.802 123.673 251 121.255 249.706 119.849C249.042 119.129 248.097 118.792 246.896 118.849C245.652 118.906 244.694 119.339 244.049 120.136C242.869 121.593 243.128 123.795 243.13 123.818C243.137 123.87 243.102 123.918 243.051 123.925C243.039 123.926 243.028 123.925 243.016 123.923Z" fill="#74717D"/>
<path d="M243.111 123.55L243.145 126.39C242.872 127.228 242.888 127.726 243.193 127.884C243.483 128.035 243.367 126.729 243.374 126.412C243.381 126.094 243.276 124.524 243.458 124.464C243.64 124.405 243.524 125.618 243.937 125.572C244.604 125.498 244.54 125.082 244.676 125.081C244.814 125.081 244.815 125.356 245.093 125.124C245.271 124.976 245.335 124.451 245.284 123.55C244.351 123.556 243.627 123.556 243.111 123.55Z" fill="#BCDDFD"/>
<path d="M251.082 125.976L251.142 130.071L244.939 130.098V126.094C248.799 126.068 250.847 126.028 251.082 125.976Z" fill="white"/>
<path d="M279.35 96.965L280.154 96.1978L242.184 57.407L241.379 58.173L279.35 96.965Z" fill="#8E5C03"/>
<path d="M285.202 77.6475C287.992 81.4083 288.905 83.7245 287.942 84.5971C286.98 85.4685 283.262 86.4886 276.789 87.6561L276.206 85.0494L282.875 81.8939L282.207 80.7519L285.202 77.6475Z" fill="#F4B7A2"/>
<path d="M247.471 66.8298C250.244 71.8145 251.955 74.5261 252.605 74.9655C253.255 75.4038 255.095 75.2886 258.126 74.6189L256.869 69.7918L254.578 70.1284L249.645 64.8943L247.471 66.8298Z" fill="#F4B7A2"/>
<path d="M248.244 68.8762C246.562 66.9294 244.746 64.3894 244.593 63.7797C244.35 62.8113 245.752 61.1454 246.833 62.3526C247.512 63.1112 248.086 63.6964 248.555 64.1085C247.684 63.2889 247.212 62.5248 247.137 61.8173C247.063 61.1088 248.883 63.0301 249.676 64.4938C249.924 64.9536 251.235 66.1897 251.797 66.6839C252.208 67.0449 248.613 69.3038 248.244 68.8762Z" fill="#74717D"/>
<path d="M278.495 126.076L278.627 128.678L275.138 129.143L274.753 126.3L278.495 126.076Z" fill="#F4B7A2"/>
<path d="M265.39 125.607L265.152 128.175L261.677 128.111L261.703 125.269L265.39 125.607Z" fill="#F4B7A2"/>
<path d="M275.482 68.2992L276.488 63.4036C277.092 61.9064 277.47 60.6261 277.62 59.5626C277.845 57.9669 277.122 56.0658 274.596 56.3712C272.069 56.6766 272.309 58.466 271.372 59.4619C270.435 60.459 269.77 60.0573 269.749 60.4999C269.736 60.7943 270.067 60.9636 270.743 61.0056C270.331 61.8024 270.103 62.6843 270.061 63.6504C270.044 64.0311 270.233 64.3951 270.563 64.5921C270.993 64.8477 271.516 65.1011 272.134 65.3512C271.969 66.2354 271.858 66.7843 271.803 66.9967C270.784 66.7831 276.771 69.0295 275.482 68.2992Z" fill="#F4B7A2"/>
<path d="M276.021 65.7012L274.608 65.1395L274.94 62.9183C275.693 62.003 275.778 61.3283 275.193 60.893C274.315 60.2395 273.572 61.9303 273.118 61.777C272.663 61.6248 273.756 60.4006 273.748 58.9023C273.742 57.404 271.828 57.5081 272.224 56.322C272.791 54.6223 276.981 54.4936 279.045 56.7192C281.8 59.6879 278.268 62.0399 277.498 62.9631C276.985 63.5785 276.493 64.4916 276.021 65.7012Z" fill="#1C1C1C"/>
<g style="mix-blend-mode:multiply">
<path d="M270.794 62.7685C270.764 62.7607 270.735 62.7499 270.707 62.7381C270.452 62.6259 270.399 62.3929 270.396 62.3831C270.389 62.3496 270.415 62.3181 270.456 62.3122C270.496 62.3063 270.535 62.328 270.542 62.3614C270.542 62.3634 270.586 62.5473 270.778 62.6309C270.936 62.6987 271.153 62.685 271.421 62.5886C271.459 62.5758 271.502 62.5896 271.519 62.62C271.535 62.6515 271.518 62.6869 271.48 62.7007C271.21 62.7971 270.98 62.8207 270.794 62.7685Z" fill="#A05544"/>
</g>
<path d="M272.694 59.6598C272.649 59.4707 272.569 59.3399 272.456 59.2729C272.297 59.1761 272.12 59.2388 272.118 59.2399C272.07 59.2619 272.035 59.252 272.015 59.2102C271.996 59.1728 272.018 59.1399 272.08 59.1102C272.089 59.1069 272.306 59.0288 272.513 59.1519C272.657 59.2377 272.757 59.3971 272.813 59.6246C272.822 59.6851 272.813 59.7191 272.781 59.7268C272.733 59.7367 272.704 59.7147 272.694 59.6598Z" fill="#1C1C1C"/>
<path d="M272.137 60.0986C272.083 60.2748 271.981 60.3969 271.91 60.3712C271.84 60.3442 271.826 60.1809 271.881 60.0034C271.935 59.8272 272.036 59.705 272.108 59.732C272.178 59.7577 272.191 59.9224 272.137 60.0986Z" fill="#1C1C1C"/>
<path d="M235.777 60.5075C235.788 60.4973 235.8 60.4872 235.811 60.477L244.2 52.6699C244.42 52.4646 244.548 52.187 244.558 51.8869C244.569 51.5868 244.462 51.3003 244.258 51.0803L242.769 49.4805L242 50.1957L242.111 50.3142L242.76 49.7106L244.138 51.1908C244.313 51.3792 244.404 51.624 244.395 51.8813C244.386 52.1374 244.277 52.3754 244.09 52.5503L235.699 60.3574C235.527 60.5221 235.298 60.6056 235.06 60.5966C234.82 60.5887 234.6 60.4872 234.437 60.3123L233.012 58.7813L233.603 58.2319L233.491 58.1134L232.782 58.7734L234.318 60.424C234.51 60.6304 234.772 60.7489 235.053 60.7591C235.32 60.7692 235.575 60.6801 235.777 60.5075Z" fill="#74717D"/>
<path d="M241.701 57.8663L241.822 57.7569L240.412 56.1909L240.291 56.3004L241.701 57.8663Z" fill="#74717D"/>
<path d="M235.129 68.8313L235.256 59.9208C235.221 59.5846 235.221 59.5846 235.018 59.474L233.016 57.4884L241.199 49.2356L243.549 51.5653L236.352 58.823C236.088 60.4916 236.396 64.0579 235.961 64.4618C235.408 64.9751 235.824 61.1415 235.91 59.2698L235.553 59.6286L235.401 68.5786C235.467 70.5506 235.3 71.5694 234.901 71.636C234.153 71.7612 234.229 70.8259 235.129 68.8313Z" fill="#BCDDFD"/>
<path d="M264.494 76.8398C264.195 83.255 263.898 87.6342 263.607 89.9753C263.17 93.4891 261.915 105.315 261.424 109.237C261.096 111.852 260.751 117.805 260.386 127.095L266.009 127.135C266.841 118.482 267.383 113.746 267.638 112.926C267.893 112.107 268.827 107.385 270.442 98.7603L271.532 112.692C271.859 114.488 272.77 119.325 274.266 127.206L279.273 126.509C278.255 117.571 277.728 112.556 277.691 111.463C277.636 109.823 277.309 98.524 277.309 96.4747C277.309 95.1089 277.254 91.5374 277.145 85.7603L275.944 87.5754L265.408 86.1697C265.236 81.3544 264.931 78.2445 264.494 76.8398Z" fill="#2E93F7"/>
<path d="M256.673 69.0838L257.607 75.5166L264.16 74.8683L265.372 86.1078L276.709 87.6555L278.58 77.915L281.594 81.3023C284.599 78.2479 286.029 76.9016 285.882 77.2656C285.729 77.6428 283.514 72.71 278.685 69.4765C276.551 68.0483 271.952 66.4962 268.258 66.6854C264.708 66.8668 260.846 67.6666 256.673 69.0838Z" fill="#2242A3"/>
<path d="M269.103 66.6697L272.246 79.8627L271.147 87.3057L273.211 87.6555L274.382 80.3851L279.112 69.8098L277.54 68.8462L273.646 77.6794L270.965 66.6697H269.103Z" fill="#2E93F7"/>
<path d="M265.229 128.103L265.08 131.08L255.236 131.033C255.109 130.631 255.747 130.244 257.15 129.871C258.919 129.662 260.411 129.044 261.625 128.013L265.229 128.103Z" fill="#2242A3"/>
<path d="M278.596 128.013L278.951 131.194L270.395 131.242C270.656 130.682 271.243 130.348 272.152 130.239C273.062 130.131 274.002 129.472 274.975 128.265L278.596 128.013Z" fill="#2242A3"/>
<path d="M273.139 55.3631C273.734 57.5647 274.398 59.0258 275.133 59.7475C275.868 60.4704 276.864 61.3781 278.12 62.4728C281.031 60.313 281.503 58.0114 279.536 55.57C277.643 53.2221 275.511 53.1527 273.139 55.3631Z" fill="#2E93F7"/>
<path d="M263.713 88.1399L263.453 89.6593L277.298 91.207L277.336 89.632L263.713 88.1399Z" fill="#91C8FC"/>
<path d="M266.158 90.2385L265.713 90.1793L265.913 88.1399L266.359 88.1991L266.158 90.2385Z" fill="#2E93F7"/>
<path d="M273.857 91.0456L273.301 90.9864L273.551 88.947L274.108 89.0062L273.857 91.0456Z" fill="#2E93F7"/>
<path d="M272.777 91.2072L272.332 91.148L272.532 89.1086L272.978 89.1678L272.777 91.2072Z" fill="#2E93F7"/>
<path d="M269.91 53.0484L274.754 59.2442L273.474 55.1703C270.813 52.6293 269.465 51.7767 269.427 52.6137C269.42 52.7682 269.818 52.9205 269.91 53.0484Z" fill="#1B85DD"/>
<g style="mix-blend-mode:multiply" opacity="0.302">
<path d="M256.542 68.9911L257.081 68.9121L257.742 73.9078L256.909 74.0567L256.542 68.9911Z" fill="#F4B7A2"/>
</g>
<g style="mix-blend-mode:multiply" opacity="0.302">
<path d="M282.571 81.3603L285.892 78.618L285.199 77.6475L282.179 80.7042L282.571 81.3603Z" fill="#F4B7A2"/>
</g>
<g style="mix-blend-mode:multiply" opacity="0.302">
<path d="M264.261 74.9026H267.812L264.553 76.8397L264.261 74.9026Z" fill="#2242A3"/>
</g>
<g style="mix-blend-mode:multiply" opacity="0.302">
<path d="M270.395 98.8005L271.525 96.3728L271.088 107.027L270.395 98.8005Z" fill="#2E93F7"/>
</g>
<path d="M241.983 0H139.475C143.672 2.68445 153.6 4.15656 190.89 4.50294C220.722 4.78005 237.382 1.61644 241.983 0Z" fill="#BCDDFD"/>
<path d="M138.83 102.669H195.33V100.409H138.83V102.669Z" fill="#CAC9D3"/>
<path d="M138.83 107.028H195.33V102.669H138.83V107.028Z" fill="#DBE2EC"/>
<path d="M191.372 40.6804H142.528V100.462H191.372V40.6804Z" fill="#CAC9D3"/>
<path d="M189.367 43.1228H144.516V98.0184H189.367V43.1228Z" fill="#D5E8F7"/>
<path d="M164.732 98.7951H166.986V43.1228H164.732V98.7951Z" fill="#CAC9D3"/>
<path d="M181.626 12.959L181.186 12.8343L184.83 0H185.396L181.626 12.959Z" fill="#0A2355"/>
<path d="M180.059 17.4007C179.402 17.2136 179.02 16.5309 179.206 15.8748L180.647 10.8039C180.833 10.1478 181.517 9.76666 182.174 9.95263C182.832 10.1398 183.213 10.8224 183.027 11.4785L181.587 16.5494C181.401 17.2055 180.716 17.5867 180.059 17.4007Z" fill="#2E93F7"/>
<path d="M176.991 29.8175C180.918 30.5683 181.524 18.5114 182.054 17.965C182.584 17.4198 183.563 15.1766 183.649 13.8841C183.806 12.4367 183.516 10.376 182.631 11.3313C182.175 11.8084 180.641 14.8451 180.043 14.6326C179.834 14.5586 180.674 10.6163 180.034 11.4457C179.528 12.1018 179.112 14.1232 178.784 17.5122L176.362 23.8652C174.907 27.5096 175.117 29.494 176.991 29.8175Z" fill="#F4B7A2"/>
<path d="M198.867 50.6915L185.976 49.8159C184.453 62.5843 183.652 71.2348 183.573 75.7651C183.523 78.6182 183.825 84.9077 184.48 94.6359L190.769 94.0965C190.12 83.2848 189.844 77.2898 189.941 76.1128C190.111 74.0325 190.705 69.9146 191.725 63.7614C192.462 69.9284 192.919 74.2762 193.092 76.8047C193.306 79.8957 193.542 86.0905 193.804 95.3856L199.863 95.195L199.671 74.6863L198.867 50.6915Z" fill="#2242A3"/>
<path d="M186.013 49.6483C185.296 45.0394 185.351 40.9238 186.181 37.3038C180.609 34.6274 177.392 33.0796 176.533 32.6603C175.052 31.9395 174.698 29.9828 175.468 26.7889L181.147 25.8499L181.128 28.3784C182.713 28.45 187.276 30.3224 189.748 30.3593C191.254 30.3813 196.235 31.0709 198.973 32.0134C199.809 32.3011 202.737 33.2852 204.108 35.1518C206.1 37.8628 206.809 48.0808 206.879 48.5267C207.165 50.3321 205.52 53.0454 201.942 56.6666L198.697 53.5536C200.398 51.2007 201.308 49.4196 201.427 48.209C201.468 47.7897 201.162 45.8249 200.511 42.3146C199.839 47.8209 199.609 51.3878 196.855 52.5972C193.117 54.2398 189.502 53.2568 186.013 49.6483Z" fill="#91C8FC"/>
<path d="M195.087 23.0385C195.235 21.6154 196.016 20.6625 197.429 20.1797C199.548 19.4554 201.18 20.2524 202.433 22.1468C203.687 24.04 202.766 27.7525 199.582 29.0127C197.459 29.8524 195.96 27.861 195.087 23.0385Z" fill="#774624"/>
<path d="M198.817 29.2493L197.432 31.9556C196.927 32.5551 196.086 32.7007 194.91 32.3934C193.974 32.1474 193.508 31.6264 193.509 30.8271L193.953 29.7748C193.016 29.0691 192.728 28.1265 193.091 26.9472C193.636 25.1799 195.208 22.5474 195.604 22.4284C195.851 21.9641 195.573 22.9505 196.591 23.6979C197.98 24.7178 199.301 24.0421 199.154 24.9696C198.96 26.2183 198.906 26.1363 199.184 26.6168C199.409 27.0049 200.325 26.5983 200.748 27.5247C201.121 28.3356 199.779 29.6836 198.817 29.2493Z" fill="#F4B7A2"/>
<g style="mix-blend-mode:multiply">
<path d="M194.509 28.0563C194.442 28.0379 194.38 28.0113 194.321 27.9755C193.991 27.7768 193.929 27.3725 193.925 27.3552C193.919 27.3113 193.948 27.2709 193.991 27.2639C194.034 27.257 194.074 27.287 194.081 27.3298C194.081 27.3332 194.137 27.6798 194.404 27.8403C194.581 27.9477 194.818 27.9501 195.105 27.8496C195.146 27.8346 195.191 27.8565 195.205 27.8981C195.219 27.9397 195.197 27.9847 195.155 27.9986C194.911 28.0852 194.694 28.1037 194.509 28.0563Z" fill="#F4B7A2"/>
</g>
<g style="mix-blend-mode:multiply">
<path d="M200.119 28.0268C200.09 28.0187 200.066 27.9944 200.062 27.962C200.006 27.5643 199.372 27.6556 199.366 27.6568C199.322 27.6626 199.282 27.6337 199.277 27.5897C199.271 27.5469 199.301 27.5065 199.344 27.4995C199.619 27.4579 200.156 27.4949 200.217 27.9378C200.224 27.9805 200.194 28.021 200.151 28.028C200.139 28.0291 200.129 28.0291 200.119 28.0268Z" fill="#F4B7A2"/>
</g>
<g style="mix-blend-mode:multiply">
<path d="M194.925 26.8182C194.909 26.8147 194.894 26.8055 194.884 26.7916C194.796 26.6771 194.763 26.5546 194.788 26.4274C194.844 26.136 195.186 25.9302 195.201 25.9209C195.238 25.899 195.287 25.9117 195.308 25.9487C195.33 25.9869 195.317 26.0354 195.279 26.0574C195.276 26.0597 194.985 26.2366 194.943 26.4563C194.927 26.5384 194.947 26.6147 195.008 26.6922C195.034 26.7269 195.029 26.7766 194.994 26.8043C194.974 26.8205 194.949 26.8251 194.925 26.8182Z" fill="#F4B7A2"/>
</g>
<path d="M197.497 25.9309C197.472 25.9251 197.451 25.9078 197.442 25.8812C197.19 25.1489 196.386 25.2344 196.378 25.2355C196.334 25.2402 196.296 25.209 196.291 25.1651C196.286 25.1223 196.318 25.0831 196.36 25.0773C196.37 25.0773 197.299 24.978 197.591 25.8281C197.605 25.8697 197.583 25.9147 197.543 25.9298C197.527 25.9344 197.512 25.9355 197.497 25.9309Z" fill="#774624"/>
<path d="M195.493 24.8115C195.469 24.8046 195.448 24.7873 195.439 24.7619C195.363 24.5413 195.241 24.3899 195.077 24.3137C194.81 24.1889 194.51 24.301 194.506 24.3021C194.466 24.3172 194.421 24.2964 194.406 24.2559C194.391 24.2155 194.412 24.1693 194.452 24.1543C194.467 24.1485 194.814 24.018 195.143 24.1682C195.348 24.2629 195.497 24.4442 195.587 24.7076C195.602 24.7492 195.58 24.7942 195.538 24.8092C195.523 24.815 195.507 24.815 195.493 24.8115Z" fill="#774624"/>
<path d="M194.746 25.2868C194.672 25.4418 194.563 25.5447 194.504 25.5169C194.445 25.488 194.458 25.3389 194.533 25.1839C194.607 25.0278 194.716 24.9249 194.775 24.9538C194.834 24.9827 194.822 25.1319 194.746 25.2868Z" fill="#282828"/>
<path d="M196.46 26.3796C196.384 26.5346 196.275 26.6375 196.216 26.6097C196.157 26.5808 196.17 26.4316 196.245 26.2767C196.321 26.1206 196.429 26.0177 196.488 26.0466C196.548 26.0755 196.535 26.2247 196.46 26.3796Z" fill="#282828"/>
<path d="M195.585 19.0537L202.798 29.2336C202.499 28.5047 202.461 28.0554 202.683 27.8856C203.861 26.98 206.289 24.537 204.022 21.0393C201.587 17.2853 198.216 18.6841 196.83 19.4973C196.565 19.6532 196.15 19.5054 195.585 19.0537Z" fill="#2242A3"/>
<path d="M189.922 94.0679C190.361 96.9348 190.485 98.679 190.291 99.3005L183.502 99.3894C183.367 98.0287 183.683 97.0122 184.446 96.3411C185.211 95.6711 186.019 94.9688 186.868 94.2342L189.922 94.0679Z" fill="#2E93F7"/>
<path d="M198.703 94.0679C199.143 96.9348 199.265 98.679 199.073 99.3005L192.283 99.3894C192.149 98.0287 192.464 97.0122 193.228 96.3411C193.993 95.6711 194.799 94.9688 195.649 94.2342L198.703 94.0679Z" fill="#2E93F7"/>
<path d="M193.178 95.4235L200.544 95.971L200.726 93.536L193.359 92.9885L193.178 95.4235Z" fill="#4064BF"/>
<path d="M184.047 95.8693H190.851V93.2935H184.047V95.8693Z" fill="#4064BF"/>
<path d="M190.404 38.2726L196.812 39.4531L199.406 32.0975L201.054 32.7998L198.64 40.2802L196.42 52.0471L186.455 49.9876L189.218 30.2852L191.154 30.463L190.404 38.2726Z" fill="#2242A3"/>
<path d="M185.771 49.6462L185.145 52.3896L184.117 58.9113C186.402 59.4079 187.847 59.2451 188.452 58.4215C189.056 57.5979 189.587 55.7752 190.047 52.9533L195.578 53.3645C195.81 56.3342 196.261 58.2725 196.933 59.1792C197.604 60.0871 198.629 60.1634 200.008 59.4079L199.215 50.6465L185.771 49.6462Z" fill="#282828"/>
<path fill-rule="evenodd" clip-rule="evenodd" d="M216.53 79.2305C215.405 79.2305 214.018 78.4474 212.543 76.9619C210.786 75.1923 209.101 72.6326 207.799 69.753C205.772 65.2712 205.092 60.9546 206.067 58.7553C206.371 58.0715 206.821 57.6291 207.407 57.4397C208.624 57.0458 210.274 57.8174 212.053 59.6089C213.811 61.3774 215.495 63.9382 216.798 66.8179C218.825 71.2985 219.504 75.6151 218.529 77.8144C218.226 78.4982 217.775 78.9417 217.19 79.13C216.982 79.197 216.761 79.2305 216.53 79.2305ZM208.077 57.569C207.867 57.569 207.667 57.5991 207.477 57.6591C206.958 57.8278 206.554 58.2274 206.279 58.8489C205.344 60.9581 206.039 65.3012 208.01 69.6571C210.451 75.056 214.106 79.0007 216.519 79.0018C216.729 79.0018 216.929 78.9718 217.119 78.9106C217.638 78.7431 218.042 78.3423 218.317 77.722C219.252 75.6116 218.557 71.2685 216.586 66.9126C214.145 61.5148 210.49 57.569 208.077 57.569Z" fill="#2E93F7"/>
<path fill-rule="evenodd" clip-rule="evenodd" d="M216.527 79.2626C215.422 79.2626 214.051 78.5245 212.574 77.1176C210.772 75.3988 209.015 72.883 207.628 70.0322C205.463 65.5863 204.651 61.2639 205.557 59.023C205.837 58.3323 206.268 57.8771 206.839 57.6681C208.037 57.2303 209.703 57.9476 211.528 59.6883C213.331 61.4071 215.087 63.9229 216.476 66.7737C218.639 71.2196 219.453 75.5409 218.545 77.7829C218.267 78.4725 217.835 78.9287 217.264 79.1378C217.034 79.2221 216.787 79.2626 216.527 79.2626ZM207.588 57.7709C207.352 57.7709 207.128 57.8078 206.919 57.8852C206.411 58.07 206.026 58.4824 205.772 59.1096C204.902 61.2593 205.732 65.6082 207.836 69.9317C210.663 75.7395 214.857 79.772 217.184 78.9207C217.692 78.7358 218.077 78.3235 218.331 77.6963C219.2 75.5466 218.371 71.1977 216.267 66.8742C213.694 61.5873 209.988 57.7709 207.588 57.7709Z" fill="#2E93F7"/>
<path fill-rule="evenodd" clip-rule="evenodd" d="M216.776 80.1185C215.672 80.1185 214.301 79.3792 212.823 77.9723C211.021 76.2535 209.264 73.7377 207.877 70.8869C205.712 66.441 204.9 62.1186 205.806 59.8777C206.086 59.1881 206.518 58.7319 207.089 58.5228C208.287 58.085 209.952 58.8023 211.777 60.5431C213.58 62.2619 215.337 64.7776 216.725 67.6284C218.888 72.0744 219.702 76.3956 218.794 78.6376C218.516 79.3272 218.084 79.7835 217.513 79.9926C217.283 80.0769 217.037 80.1185 216.776 80.1185ZM207.837 58.6256C207.601 58.6256 207.377 58.6626 207.168 58.74C206.661 58.9248 206.275 59.3372 206.021 59.9644C205.151 62.114 205.981 66.4629 208.085 70.7864C210.659 76.0722 214.364 79.8886 216.764 79.8886C217.001 79.8886 217.224 79.8516 217.433 79.7754C217.941 79.5906 218.327 79.1782 218.58 78.551C219.449 76.4014 218.62 72.0524 216.516 67.7289C213.943 62.442 210.237 58.6256 207.837 58.6256Z" fill="#2E93F7"/>
<path fill-rule="evenodd" clip-rule="evenodd" d="M216.549 78.9413C215.446 78.9413 214.075 78.2032 212.598 76.7963C210.796 75.0775 209.038 72.5617 207.651 69.7109C205.487 65.2638 204.674 60.9426 205.581 58.7017C205.86 58.011 206.292 57.5559 206.863 57.3468C208.061 56.909 209.725 57.6263 211.552 59.367C213.355 61.0858 215.111 63.6016 216.498 66.4524C218.663 70.8984 219.475 75.2196 218.569 77.4616C218.289 78.1512 217.858 78.6075 217.286 78.8165C217.057 78.9009 216.811 78.9413 216.549 78.9413ZM207.612 57.4496C207.374 57.4496 207.151 57.4877 206.943 57.5639C206.435 57.7488 206.049 58.1611 205.795 58.7883C204.926 60.938 205.756 65.2869 207.859 69.6104C210.432 74.8973 214.138 78.7126 216.538 78.7126C216.775 78.7126 216.998 78.6756 217.208 78.5994C217.714 78.4146 218.101 78.0022 218.354 77.375C219.224 75.2242 218.395 70.8764 216.29 66.5529C213.717 61.266 210.011 57.4496 207.612 57.4496Z" fill="#2E93F7"/>
<path fill-rule="evenodd" clip-rule="evenodd" d="M216.799 79.796C215.696 79.796 214.325 79.0579 212.848 77.651C211.046 75.9322 209.289 73.4164 207.901 70.5657C205.737 66.1197 204.924 61.7973 205.831 59.5564C206.11 58.8657 206.541 58.4106 207.113 58.2015C208.311 57.7637 209.975 58.4811 211.802 60.2218C213.605 61.9406 215.361 64.4564 216.748 67.3071C218.913 71.7531 219.725 76.0743 218.819 78.3163C218.539 79.0059 218.109 79.4622 217.536 79.6713C217.307 79.7556 217.061 79.796 216.799 79.796ZM207.862 58.3043C207.626 58.3043 207.401 58.3413 207.193 58.4187C206.685 58.6035 206.3 59.0159 206.045 59.6431C205.176 61.7927 206.006 66.1416 208.109 70.4652C210.937 76.273 215.13 80.3066 217.458 79.4541C217.964 79.2693 218.351 78.8569 218.604 78.2297C219.474 76.0801 218.645 71.7311 216.54 67.4076C213.967 62.1208 210.261 58.3043 207.862 58.3043Z" fill="#2E93F7"/>
<path fill-rule="evenodd" clip-rule="evenodd" d="M216.659 77.746C215.676 77.746 214.448 77.1142 213.114 75.906C211.448 74.3962 209.802 72.16 208.478 69.6107C206.41 65.6233 205.564 61.7145 206.325 59.6538C206.559 59.0208 206.935 58.5957 207.444 58.3901C208.512 57.9569 210.032 58.5611 211.722 60.0927C213.389 61.6024 215.035 63.8387 216.359 66.3891C218.428 70.3765 219.273 74.2842 218.512 76.346C218.278 76.9779 217.902 77.403 217.394 77.6097C217.168 77.701 216.922 77.746 216.659 77.746ZM208.19 58.4813C207.955 58.4813 207.734 58.5206 207.531 58.6038C207.085 58.784 206.753 59.1652 206.543 59.7335C205.814 61.7052 206.675 65.6325 208.684 69.5044C211.377 74.6919 215.244 78.2323 217.306 77.3949C217.752 77.2147 218.085 76.8346 218.294 76.2652C219.023 74.2934 218.162 70.3673 216.154 66.4954C213.726 61.8196 210.345 58.4813 208.19 58.4813Z" fill="#2E93F7"/>
<path fill-rule="evenodd" clip-rule="evenodd" d="M215.493 78.2049C214.474 78.2049 213.218 77.4968 211.882 76.1511C210.294 74.5525 208.771 72.2376 207.593 69.6341C205.761 65.582 205.146 61.6778 206.029 59.6875C206.305 59.0673 206.714 58.6653 207.246 58.4932C208.35 58.1363 209.846 58.8328 211.457 60.4557C213.045 62.0555 214.568 64.3691 215.746 66.9727C217.578 71.0248 218.193 74.929 217.31 76.9193C217.034 77.5407 216.625 77.9427 216.093 78.1136C215.904 78.1748 215.704 78.2049 215.493 78.2049ZM207.856 58.6306C207.667 58.6306 207.488 58.6572 207.317 58.7126C206.851 58.864 206.489 59.2232 206.241 59.7811C205.397 61.6847 206.026 65.6062 207.804 69.5393C210.2 74.8355 213.887 78.5837 216.022 77.8941C216.488 77.744 216.85 77.3836 217.098 76.8257C217.942 74.9221 217.313 71.0017 215.535 67.0674C213.33 62.1941 210.032 58.6306 207.856 58.6306Z" fill="#2E93F7"/>
<path fill-rule="evenodd" clip-rule="evenodd" d="M216.629 77.7334C215.664 77.7334 214.455 77.1409 213.127 76.0031C211.423 74.5431 209.715 72.3518 208.317 69.8326C206.128 65.8879 205.163 61.9837 205.86 59.8884C206.072 59.2496 206.43 58.813 206.926 58.5889C207.974 58.1165 209.504 58.6721 211.234 60.154C212.938 61.6152 214.646 63.8065 216.044 66.3246C218.233 70.2704 219.198 74.1746 218.501 76.2699C218.289 76.9087 217.931 77.3453 217.436 77.5694C217.191 77.6791 216.922 77.7334 216.629 77.7334ZM207.745 58.6524C207.483 58.6524 207.241 58.6998 207.022 58.7991C206.587 58.9955 206.27 59.3859 206.079 59.9611C205.413 61.9664 206.393 65.8891 208.52 69.7205C211.363 74.8445 215.319 78.2694 217.34 77.358C217.775 77.1628 218.092 76.7712 218.282 76.1972C218.948 74.1908 217.968 70.2681 215.841 66.4366C213.307 61.8705 209.889 58.6524 207.745 58.6524Z" fill="#2E93F7"/>
<path fill-rule="evenodd" clip-rule="evenodd" d="M215.49 78.2348C214.489 78.2348 213.248 77.566 211.911 76.2919C210.281 74.7383 208.694 72.4639 207.44 69.8869C205.482 65.866 204.747 61.9583 205.568 59.93C205.821 59.3039 206.213 58.8892 206.733 58.6986C207.819 58.3025 209.328 58.9516 210.981 60.5272C212.611 62.0808 214.2 64.3563 215.454 66.9322C217.411 70.953 218.145 74.8619 217.325 76.8902C217.072 77.5163 216.679 77.931 216.16 78.1204C215.952 78.1966 215.727 78.2348 215.49 78.2348ZM207.414 58.8142C207.201 58.8142 207.001 58.8477 206.813 58.9158C206.357 59.0821 206.011 59.4529 205.783 60.0166C204.999 61.956 205.747 65.8822 207.647 69.7864C210.199 75.0294 213.981 78.6714 216.08 77.9032C216.536 77.7369 216.882 77.3673 217.111 76.8036C217.895 74.863 217.146 70.9369 215.246 67.0338C212.923 62.261 209.579 58.8142 207.414 58.8142Z" fill="#2E93F7"/>
<path fill-rule="evenodd" clip-rule="evenodd" d="M216.856 78.506C215.891 78.506 214.681 77.9135 213.353 76.7757C211.648 75.3157 209.941 73.1233 208.543 70.6052C206.354 66.6594 205.389 62.7563 206.086 60.6598C206.297 60.0222 206.656 59.5844 207.151 59.3615C208.2 58.8879 209.73 59.4435 211.46 60.9266C213.164 62.3878 214.873 64.579 216.269 67.0972C218.458 71.043 219.423 74.946 218.728 77.0425C218.516 77.6801 218.156 78.1179 217.661 78.3408C217.417 78.4506 217.147 78.506 216.856 78.506ZM207.971 59.425C207.709 59.425 207.467 59.4724 207.247 59.5717C206.813 59.7681 206.496 60.1585 206.305 60.7326C205.639 62.739 206.62 66.6617 208.745 70.4931C211.279 75.0592 214.698 78.2773 216.842 78.2773C217.103 78.2773 217.346 78.23 217.566 78.1306C218 77.9343 218.317 77.5438 218.508 76.9697C219.174 74.9633 218.193 71.0406 216.067 67.2092C213.534 62.6431 210.115 59.425 207.971 59.425Z" fill="#2E93F7"/>
<path fill-rule="evenodd" clip-rule="evenodd" d="M215.716 79.0078C214.716 79.0078 213.474 78.339 212.137 77.0649C210.508 75.5113 208.92 73.2369 207.666 70.6599C205.709 66.639 204.974 62.7313 205.794 60.703C206.048 60.0758 206.439 59.6622 206.96 59.4716C208.045 59.0743 209.554 59.7235 211.208 61.3002C212.837 62.8538 214.426 65.1281 215.68 67.7052C217.637 71.726 218.371 75.6337 217.551 77.6621C217.297 78.2893 216.905 78.704 216.386 78.8934C216.178 78.9696 215.954 79.0078 215.716 79.0078ZM207.641 59.5872C207.428 59.5872 207.227 59.6207 207.039 59.6888C206.584 59.8551 206.237 60.2259 206.009 60.7896C205.224 62.729 205.974 66.6552 207.874 70.5594C210.425 75.8024 214.21 79.4444 216.306 78.6763C216.762 78.5099 217.109 78.1391 217.337 77.5754C218.121 75.636 217.372 71.7099 215.472 67.8068C213.149 63.0328 209.805 59.5872 207.641 59.5872Z" fill="#2E93F7"/>
<path fill-rule="evenodd" clip-rule="evenodd" d="M215.938 77.7438C214.919 77.7438 213.662 77.0346 212.327 75.69C210.739 74.0902 209.216 71.7754 208.038 69.1718C206.206 65.1209 205.591 61.2167 206.474 59.2265C206.749 58.605 207.159 58.203 207.691 58.0309C208.795 57.674 210.29 58.3717 211.901 59.9934C213.49 61.5932 215.013 63.9081 216.19 66.5116C218.023 70.5626 218.637 74.4668 217.755 76.457C217.479 77.0785 217.07 77.4804 216.537 77.6525C216.349 77.7126 216.149 77.7438 215.938 77.7438ZM208.301 58.1695C208.112 58.1695 207.932 58.1961 207.762 58.2504C207.295 58.4017 206.933 58.761 206.686 59.3189C205.841 61.2225 206.469 65.144 208.249 69.0771C210.454 73.9516 213.751 77.5139 215.927 77.5139C216.116 77.5139 216.296 77.4873 216.467 77.4319C216.933 77.2817 217.295 76.9225 217.543 76.3634C218.386 74.461 217.758 70.5395 215.98 66.6064C213.775 61.7319 210.477 58.1695 208.301 58.1695Z" fill="#2E93F7"/>
<path fill-rule="evenodd" clip-rule="evenodd" d="M215.934 77.773C214.934 77.773 213.692 77.1042 212.356 75.8313C210.726 74.2777 209.137 72.0033 207.883 69.4262C205.926 65.4054 205.192 61.4965 206.012 59.4682C206.265 58.8421 206.658 58.4274 207.177 58.238C208.264 57.8407 209.772 58.4898 211.426 60.0665C213.056 61.6201 214.643 63.8945 215.897 66.4715C217.855 70.4924 218.59 74.4001 217.769 76.4284C217.516 77.0557 217.124 77.4692 216.604 77.6598C216.396 77.736 216.172 77.773 215.934 77.773ZM207.859 58.3524C207.646 58.3524 207.444 58.3859 207.257 58.4552C206.801 58.6215 206.455 58.9911 206.227 59.5548C205.442 61.4954 206.191 65.4215 208.091 69.3246C210.644 74.5676 214.427 78.2107 216.524 77.4426C216.98 77.2763 217.326 76.9055 217.554 76.3418C218.339 74.4013 217.59 70.4762 215.69 66.572C213.367 61.7992 210.022 58.3524 207.859 58.3524Z" fill="#2E93F7"/>
<path fill-rule="evenodd" clip-rule="evenodd" d="M217.3 78.0442C216.336 78.0442 215.126 77.4516 213.797 76.3139C212.093 74.8538 210.385 72.6626 208.988 70.1434C206.799 66.1987 205.834 62.2945 206.53 60.1991C206.742 59.5604 207.101 59.1238 207.596 58.8997C208.644 58.4261 210.175 58.9828 211.905 60.4648C213.609 61.926 215.316 64.1172 216.714 66.6353C218.903 70.5811 219.868 74.4842 219.173 76.5807C218.96 77.2195 218.601 77.6561 218.106 77.8802C217.862 77.9899 217.592 78.0442 217.3 78.0442ZM208.415 58.9632C208.154 58.9632 207.912 59.0106 207.692 59.1099C207.257 59.3063 206.94 59.6967 206.75 60.2708C206.084 62.2772 207.064 66.1999 209.19 70.0313C211.724 74.5974 215.143 77.8155 217.287 77.8166C217.548 77.8166 217.791 77.7681 218.011 77.6688C218.445 77.4736 218.762 77.082 218.953 76.5079C219.619 74.5015 218.638 70.58 216.512 66.7474C213.978 62.1813 210.56 58.9632 208.415 58.9632Z" fill="#2E93F7"/>
<path fill-rule="evenodd" clip-rule="evenodd" d="M216.16 78.5453C215.159 78.5453 213.918 77.8765 212.581 76.6024C210.951 75.0488 209.364 72.7744 208.11 70.1974C206.152 66.1765 205.417 62.2688 206.238 60.2405C206.491 59.6133 206.883 59.1997 207.403 59.0091C208.489 58.6118 209.998 59.2621 211.652 60.8377C213.281 62.3913 214.87 64.6668 216.124 67.2427C218.081 71.2635 218.815 75.1724 217.995 77.1996C217.742 77.8268 217.349 78.2415 216.83 78.4309C216.622 78.5071 216.397 78.5453 216.16 78.5453ZM208.085 59.1247C207.872 59.1247 207.671 59.1581 207.483 59.2263C207.027 59.3926 206.681 59.7634 206.453 60.3271C205.668 62.2677 206.417 66.1927 208.318 70.0969C210.641 74.8697 213.985 78.3154 216.148 78.3166C216.361 78.3166 216.563 78.2831 216.75 78.2137C217.206 78.0474 217.553 77.6778 217.781 77.1141C218.565 75.1735 217.816 71.2474 215.916 67.3443C213.593 62.5703 210.249 59.1247 208.085 59.1247Z" fill="#2E93F7"/>
<path fill-rule="evenodd" clip-rule="evenodd" d="M216.68 77.4563C215.697 77.4563 214.47 76.8244 213.136 75.6162C211.469 74.1065 209.823 71.8702 208.5 69.3198C206.431 65.3324 205.586 61.4247 206.347 59.364C206.581 58.731 206.957 58.306 207.465 58.0992C208.534 57.666 210.053 58.2713 211.745 59.803C213.411 61.3127 215.057 63.5489 216.381 66.0994C218.449 70.0868 219.295 73.9944 218.533 76.0551C218.299 76.6881 217.923 77.1132 217.415 77.32C217.189 77.4112 216.944 77.4563 216.68 77.4563ZM208.212 58.1916C207.976 58.1916 207.755 58.2309 207.552 58.314C207.107 58.4942 206.774 58.8743 206.565 59.4437C205.836 61.4155 206.697 65.3416 208.705 69.2135C211.397 74.4022 215.266 77.9414 217.328 77.1051C217.774 76.9249 218.106 76.5449 218.316 75.9754C219.044 74.0037 218.184 70.0775 216.175 66.2056C213.748 61.5287 210.365 58.1916 208.212 58.1916Z" fill="#2E93F7"/>
<path fill-rule="evenodd" clip-rule="evenodd" d="M215.516 77.9146C214.495 77.9146 213.24 77.2054 211.905 75.8608C210.316 74.261 208.792 71.9474 207.616 69.3438C205.782 65.2917 205.169 61.3875 206.051 59.3973C206.327 58.7758 206.735 58.3739 207.267 58.2029C208.372 57.846 209.867 58.5425 211.479 60.1654C213.066 61.7641 214.59 64.0789 215.768 66.6824C217.6 70.7345 218.214 74.6387 217.331 76.629C217.055 77.2493 216.647 77.6512 216.115 77.8233C215.926 77.8846 215.725 77.9146 215.516 77.9146ZM207.878 58.3404C207.69 58.3404 207.509 58.3669 207.339 58.4224C206.873 58.5725 206.511 58.9329 206.263 59.4908C205.419 61.3944 206.047 65.3148 207.826 69.2491C210.222 74.5452 213.908 78.2923 216.043 77.6039C216.511 77.4525 216.873 77.0933 217.12 76.5354C217.964 74.6318 217.335 70.7103 215.556 66.7772C213.352 61.9038 210.055 58.3404 207.878 58.3404Z" fill="#2E93F7"/>
<path fill-rule="evenodd" clip-rule="evenodd" d="M216.652 77.4435C215.687 77.4435 214.477 76.851 213.15 75.7132C211.445 74.2531 209.736 72.0619 208.34 69.5427C206.15 65.5969 205.185 61.6938 205.881 59.5973C206.093 58.9597 206.452 58.5219 206.948 58.299C207.996 57.8254 209.526 58.381 211.256 59.8641C212.96 61.3253 214.669 63.5165 216.066 66.0347C218.255 69.9805 219.22 73.8835 218.524 75.98C218.312 76.6176 217.953 77.0554 217.457 77.2783C217.214 77.3892 216.943 77.4435 216.652 77.4435ZM207.767 58.3625C207.506 58.3625 207.263 58.4099 207.043 58.5092C206.609 58.7056 206.292 59.096 206.101 59.6701C205.435 61.6765 206.416 65.5992 208.542 69.4306C211.075 73.9967 214.494 77.2148 216.638 77.216C216.899 77.216 217.142 77.1674 217.362 77.0681C217.796 76.8717 218.113 76.4813 218.304 75.9072C218.97 73.9008 217.989 69.9781 215.864 66.1467C213.33 61.5806 209.911 58.3625 207.767 58.3625Z" fill="#2E93F7"/>
<path fill-rule="evenodd" clip-rule="evenodd" d="M215.512 77.9447C214.511 77.9447 213.27 77.2759 211.932 76.0019C210.303 74.4483 208.715 72.1739 207.461 69.5969C205.504 65.576 204.769 61.6683 205.59 59.6399C205.843 59.0127 206.235 58.5992 206.755 58.4086C207.84 58.0124 209.35 58.6616 211.003 60.2371C212.632 61.7907 214.221 64.0651 215.475 66.6421C217.433 70.663 218.166 74.5719 217.347 76.599C217.092 77.2263 216.701 77.6409 216.181 77.8304C215.973 77.9066 215.749 77.9447 215.512 77.9447ZM207.436 58.5241C207.223 58.5241 207.022 58.5576 206.835 58.6258C206.379 58.7921 206.032 59.1629 205.804 59.7266C205.019 61.666 205.769 65.5921 207.669 69.4964C210.221 74.7393 214.004 78.3814 216.102 77.6132C216.557 77.4469 216.904 77.0773 217.132 76.5124C217.916 74.573 217.167 70.6468 215.267 66.7438C212.944 61.9698 209.6 58.5241 207.436 58.5241Z" fill="#2E93F7"/>
<path fill-rule="evenodd" clip-rule="evenodd" d="M216.877 78.2151C215.912 78.2151 214.703 77.6237 213.375 76.4859C211.67 75.0247 209.963 72.8335 208.565 70.3154C206.376 66.3696 205.411 62.4665 206.106 60.37C206.319 59.7313 206.678 59.2947 207.173 59.0706C208.221 58.5981 209.751 59.1537 211.482 60.6369C213.186 62.0969 214.894 64.2881 216.291 66.8074C218.48 70.7532 219.445 74.6562 218.749 76.7527C218.537 77.3904 218.178 77.827 217.683 78.0511C217.439 78.1608 217.169 78.2151 216.877 78.2151ZM207.992 59.1341C207.731 59.1341 207.488 59.1826 207.268 59.2819C206.834 59.4772 206.517 59.8687 206.326 60.4428C205.66 62.4492 206.641 66.3719 208.767 70.2034C211.61 75.3262 215.567 78.7511 217.587 77.8408C218.022 77.6445 218.339 77.2541 218.529 76.68C219.195 74.6736 218.215 70.7509 216.089 66.9194C213.555 62.3533 210.136 59.1341 207.992 59.1341Z" fill="#2E93F7"/>
<path fill-rule="evenodd" clip-rule="evenodd" d="M213.511 79.5746C212.401 79.5746 211.176 78.5673 210.039 76.7122C208.862 74.7936 207.911 72.1889 207.36 69.3774C206.502 64.9903 206.796 61.0237 208.109 59.2738C208.515 58.7332 209 58.4329 209.55 58.382C210.703 58.2781 211.995 59.2899 213.188 61.2363C214.365 63.1549 215.316 65.7608 215.866 68.5723C216.725 72.9593 216.431 76.9248 215.118 78.6759C214.712 79.2165 214.227 79.5168 213.676 79.5676C213.621 79.5722 213.566 79.5746 213.511 79.5746ZM209.719 58.605C209.67 58.605 209.621 58.6073 209.572 58.6119C209.089 58.6569 208.66 58.9261 208.294 59.4124C207.038 61.0861 206.754 65.0735 207.588 69.3323C208.684 74.9276 211.311 79.3435 213.507 79.3435C213.557 79.3435 213.606 79.3412 213.654 79.3366C214.138 79.2927 214.567 79.0236 214.933 78.5373C216.189 76.8624 216.473 72.8762 215.639 68.6162C214.543 63.0221 211.915 58.605 209.719 58.605Z" fill="#2E93F7"/>
<g style="mix-blend-mode:multiply" opacity="0.302">
<path d="M200.511 42.3148L201.396 38.2246L201.08 45.0709L200.511 42.3148Z" fill="#91C8FC"/>
</g>
<path d="M194.584 53.2901L190.53 52.9887L190.751 50.0166L194.806 50.3181L194.584 53.2901Z" fill="#74717D"/>
<path d="M200.208 25.5774L200.548 26.0579C198.635 29.1582 196.922 30.6471 195.408 30.5235C194.291 30.4323 193.693 30.0719 193.613 29.44C194.081 29.9945 194.676 30.2163 195.396 30.1054C196.755 29.8951 198.359 28.3854 200.208 25.5774Z" fill="#74717D"/>
<g style="mix-blend-mode:multiply" opacity="0.302">
<path d="M191.725 61.3356L190.862 59.5024L190.008 70.0762L191.725 61.3356Z" fill="#2242A3"/>
</g>
<path d="M186.857 52.7163L187.343 49.8413L188.449 50.0273L187.982 52.7995L186.857 52.7163Z" fill="#74717D"/>
<path d="M188.431 47.8615L188.549 47.835C188.89 48.0983 189.082 48.4448 189.126 48.8734C189.17 49.3031 189.029 49.6277 188.702 49.8483C188.584 50.0909 188.469 50.3646 188.373 50.6696C188.343 50.7643 188.315 50.8567 188.292 50.9468C187.937 50.8082 187.583 50.6684 187.228 50.5298C187.237 50.4385 187.239 50.3242 187.224 50.1937C187.207 50.04 187.17 49.9118 187.134 49.8159C187.048 49.7443 186.922 49.6173 186.851 49.4221C186.773 49.2141 186.8 49.034 186.839 48.7891C186.868 48.6008 186.93 48.334 187.069 48.0302C187.117 48.0221 187.164 48.0152 187.212 48.0071L187.343 48.7775C187.493 49.0259 187.785 49.1483 188.057 49.0801C188.305 49.0189 188.493 48.811 188.537 48.5534C188.502 48.3236 188.467 48.0925 188.431 47.8615Z" fill="#74717D"/>
<path d="M232.341 135.439L211.877 59.8007H191.975L212.323 135.316L211.877 135.439L191.365 59.3386H212.229L212.277 59.5073L232.786 135.315L232.341 135.439Z" fill="#8A888E"/>
<path d="M203.197 53.347C204.899 54.7735 199.495 57.9431 199.307 58.6939C199.118 59.4447 196.949 61.2871 195.908 62.0471C194.773 62.9504 192.756 61.875 193.108 60.5987C193.277 59.9472 195.431 58.6061 194.949 58.1972C194.781 58.054 192.304 60.318 192.674 59.3211C192.968 58.5322 194.479 57.4198 197.208 55.984L200.423 51.4838C200.433 51.0333 201.357 51.6548 203.197 53.347Z" fill="#F4B7A2"/>
<path d="M200.259 50.645L205.193 53.9636L203.268 56.2056L198.426 52.9413L200.259 50.645Z" fill="#B9DCF9"/>
<path d="M169.702 132.827L169.259 132.695L191.448 59.5037L191.892 59.6353L169.702 132.827Z" fill="#8A888E"/>
<path d="M199.893 99.6569H179.652V99.1948H199.893V99.6569Z" fill="#8A888E"/>
<path d="M196.657 110.445H176.416V109.983H196.657V110.445Z" fill="#8A888E"/>
<path d="M202.788 89.765H182.548V89.303H202.788V89.765Z" fill="#8A888E"/>
<path d="M205.669 80.0355H185.429V79.5735H205.669V80.0355Z" fill="#8A888E"/>
<path d="M209.026 68.9513H189.156V68.4893H209.026V68.9513Z" fill="#8A888E"/>
<path d="M190.216 133.193L189.772 133.061L211.353 58.9519L211.796 59.0836L190.216 133.193Z" fill="#8A888E"/>
<path fill-rule="evenodd" clip-rule="evenodd" d="M217.786 78.7083C216.721 78.7083 215.385 78.0545 213.918 76.7966C212.033 75.1818 210.144 72.7572 208.598 69.9723C206.177 65.6083 205.11 61.2918 205.879 58.9758C206.112 58.2723 206.507 57.7918 207.052 57.5458C208.207 57.0248 209.896 57.6382 211.806 59.2761C213.692 60.8921 215.581 63.3155 217.127 66.1016C219.548 70.4644 220.616 74.7809 219.846 77.0969C219.613 77.8004 219.218 78.282 218.673 78.5281C218.405 78.6482 218.107 78.7083 217.786 78.7083ZM207.951 57.5931C207.661 57.5931 207.391 57.6463 207.147 57.756C206.664 57.9743 206.311 58.4098 206.098 59.0486C205.36 61.2721 206.446 65.6164 208.801 69.8602C211.949 75.5352 216.335 79.3286 218.577 78.3167C219.061 78.0984 219.414 77.6641 219.627 77.0253C220.365 74.8017 219.279 70.4563 216.925 66.2136C214.118 61.1566 210.33 57.5931 207.951 57.5931Z" fill="#2E93F7"/>
<path fill-rule="evenodd" clip-rule="evenodd" d="M218.036 79.5633C216.972 79.5633 215.636 78.9096 214.168 77.6517C212.284 76.0368 210.394 73.6123 208.849 70.8274C206.427 66.4634 205.36 62.1468 206.13 59.8309C206.363 59.1274 206.758 58.6469 207.303 58.4008C208.459 57.8787 210.147 58.4944 212.057 60.1312C213.943 61.7472 215.832 64.1705 217.378 66.9566C219.798 71.3206 220.866 75.636 220.097 77.9531C219.863 78.6554 219.469 79.1371 218.924 79.3831C218.655 79.5033 218.358 79.5633 218.036 79.5633ZM208.203 58.4482C207.911 58.4482 207.642 58.5013 207.398 58.6111C206.914 58.8294 206.561 59.2649 206.35 59.9036C205.61 62.1272 206.697 66.4715 209.051 70.7153C212.2 76.3903 216.585 80.1836 218.828 79.1718C219.311 78.9535 219.665 78.5191 219.877 77.8804C220.615 75.6568 219.53 71.3113 217.175 67.0687C214.369 62.0117 210.581 58.4482 208.203 58.4482Z" fill="#2E93F7"/>
<path fill-rule="evenodd" clip-rule="evenodd" d="M217.022 78.7199C215.896 78.7199 214.51 77.9367 213.035 76.4501C211.277 74.6817 209.593 72.1208 208.29 69.2412C206.263 64.7605 205.584 60.444 206.559 58.2447C206.862 57.5608 207.313 57.1184 207.899 56.929C209.116 56.5351 210.766 57.3056 212.545 59.0983C214.302 60.8667 215.987 63.4264 217.29 66.3072C219.316 70.7878 219.996 75.1044 219.021 77.3037C218.717 77.9875 218.267 78.4299 217.681 78.6194C217.474 78.6864 217.253 78.7199 217.022 78.7199ZM208.569 57.0572C208.359 57.0572 208.159 57.0873 207.969 57.1485C207.45 57.3171 207.046 57.7168 206.771 58.3382C205.836 60.4474 206.531 64.7906 208.502 69.1464C210.943 74.5454 214.598 78.49 217.011 78.49C217.221 78.49 217.421 78.4611 217.611 78.3999C218.13 78.2313 218.534 77.8316 218.809 77.2102C219.744 75.1009 219.049 70.7578 217.078 66.4019C214.637 61.003 210.982 57.0572 208.569 57.0572Z" fill="#2E93F7"/>
<path fill-rule="evenodd" clip-rule="evenodd" d="M217.017 78.7524C215.913 78.7524 214.542 78.0143 213.065 76.6062C211.263 74.8886 209.507 72.3716 208.119 69.522C205.955 65.0749 205.142 60.7537 206.048 58.5128C206.327 57.8221 206.759 57.3658 207.33 57.1567C208.528 56.719 210.193 57.4374 212.02 59.1781C213.822 60.8958 215.578 63.4127 216.966 66.2623C219.13 70.7095 219.943 75.0307 219.037 77.2715C218.758 77.9623 218.326 78.4186 217.755 78.6276C217.524 78.7108 217.278 78.7524 217.017 78.7524ZM208.079 57.2607C207.843 57.2607 207.62 57.2977 207.41 57.3739C206.902 57.5599 206.517 57.9722 206.262 58.5994C205.393 60.7491 206.223 65.098 208.326 69.4204C210.9 74.7072 214.605 78.5237 217.006 78.5237C217.242 78.5237 217.465 78.4867 217.675 78.4105C218.183 78.2245 218.568 77.8121 218.821 77.1849C219.692 75.0353 218.862 70.6864 216.757 66.364C214.184 61.0771 210.478 57.2607 208.079 57.2607Z" fill="#2E93F7"/>
<path fill-rule="evenodd" clip-rule="evenodd" d="M216.552 78.9093C215.428 78.9093 214.042 78.1262 212.565 76.6407C210.809 74.8711 209.124 72.3114 207.822 69.4318C205.795 64.95 205.115 60.6334 206.091 58.4341C206.394 57.7503 206.844 57.3079 207.429 57.1185C208.647 56.7246 210.298 57.495 212.077 59.2877C213.833 61.0562 215.518 63.617 216.821 66.4967C218.848 70.9773 219.527 75.2939 218.552 77.4932C218.248 78.177 217.798 78.6205 217.213 78.8088C217.005 78.877 216.785 78.9093 216.552 78.9093ZM208.1 57.2478C207.89 57.2478 207.691 57.2767 207.501 57.3379C206.982 57.5066 206.578 57.9062 206.303 58.5277C205.367 60.6369 206.062 64.98 208.032 69.3359C210.475 74.7348 214.128 78.6795 216.543 78.6806C216.752 78.6806 216.953 78.6506 217.141 78.5894C217.662 78.4219 218.064 78.021 218.34 77.3996C219.276 75.2904 218.58 70.9473 216.61 66.5914C214.168 61.1936 210.514 57.2478 208.1 57.2478Z" fill="#2E93F7"/>
<path fill-rule="evenodd" clip-rule="evenodd" d="M217.809 78.387C216.745 78.387 215.409 77.7332 213.941 76.4753C212.057 74.8605 210.167 72.4359 208.621 69.651C206.201 65.287 205.133 60.9705 205.903 58.6545C206.136 57.951 206.531 57.4705 207.076 57.2245C208.232 56.7024 209.92 57.3169 211.831 58.9548C213.716 60.5708 215.605 62.9942 217.151 65.7803C219.572 70.1431 220.639 74.4597 219.87 76.7756C219.636 77.4791 219.241 77.9607 218.696 78.2068C218.428 78.3269 218.131 78.387 217.809 78.387ZM207.976 57.2718C207.685 57.2718 207.416 57.325 207.172 57.4347C206.688 57.653 206.334 58.0885 206.122 58.7273C205.384 60.9508 206.469 65.2951 208.824 69.5389C211.973 75.2139 216.359 79.0073 218.602 77.9954C219.085 77.7771 219.438 77.3428 219.65 76.704C220.389 74.4804 219.303 70.135 216.948 65.8923C214.143 60.8353 210.353 57.2718 207.976 57.2718Z" fill="#2E93F7"/>
<path fill-rule="evenodd" clip-rule="evenodd" d="M217.103 77.285C216.12 77.285 214.892 76.6531 213.558 75.4438C211.892 73.934 210.246 71.6989 208.922 69.1485C206.852 65.1611 206.008 61.2534 206.769 59.1916C207.003 58.5597 207.379 58.1335 207.887 57.9279C208.956 57.4936 210.476 58.0988 212.166 59.6317C213.833 61.1414 215.479 63.3765 216.803 65.9269C218.871 69.9143 219.717 73.8231 218.956 75.8838C218.722 76.5157 218.346 76.9419 217.837 77.1475C217.611 77.2388 217.366 77.285 217.103 77.285ZM208.634 58.0191C208.399 58.0191 208.178 58.0596 207.975 58.1416C207.529 58.3229 207.196 58.703 206.987 59.2713C206.258 61.2442 207.119 65.1703 209.127 69.0422C211.821 74.2309 215.688 77.7701 217.75 76.9338C218.196 76.7525 218.528 76.3724 218.738 75.8041C219.467 73.8312 218.606 69.9051 216.597 66.0332C214.17 61.3574 210.788 58.0191 208.634 58.0191Z" fill="#2E93F7"/>
<path fill-rule="evenodd" clip-rule="evenodd" d="M217.073 77.2715C216.108 77.2715 214.899 76.6801 213.571 75.5423C211.867 74.0811 210.159 71.8899 208.761 69.3718C206.572 65.426 205.607 61.5218 206.303 59.4264C206.516 58.7877 206.874 58.351 207.369 58.127C208.418 57.6545 209.947 58.2101 211.678 59.6933C213.382 61.1533 215.09 63.3445 216.488 65.8638C218.677 69.8084 219.642 73.7127 218.945 75.808C218.733 76.4468 218.375 76.8834 217.879 77.1075C217.635 77.2172 217.366 77.2715 217.073 77.2715ZM208.189 58.1905C207.927 58.1905 207.684 58.239 207.464 58.3372C207.03 58.5336 206.713 58.924 206.522 59.4992C205.856 61.5056 206.837 65.4272 208.964 69.2598C211.806 74.3826 215.763 77.8075 217.783 76.8972C218.218 76.7009 218.534 76.3105 218.725 75.7352C219.392 73.73 218.412 69.8073 216.285 65.9747C213.751 61.4086 210.332 58.1905 208.189 58.1905Z" fill="#2E93F7"/>
<path fill-rule="evenodd" clip-rule="evenodd" d="M217.818 80.2246C216.733 80.2246 215.378 79.5269 213.904 78.1905C212.061 76.5214 210.24 74.0483 208.776 71.2276C206.488 66.8174 205.553 62.4962 206.394 60.2183C206.652 59.5218 207.065 59.054 207.625 58.8265C208.803 58.3482 210.479 59.017 212.348 60.7093C214.19 62.3795 216.011 64.8526 217.476 67.6733C219.763 72.0835 220.698 76.4047 219.857 78.6825C219.6 79.379 219.186 79.8469 218.627 80.0744C218.378 80.1749 218.107 80.2246 217.818 80.2246ZM208.445 58.905C208.183 58.905 207.937 58.9489 207.712 59.0413C207.215 59.2423 206.845 59.665 206.611 60.298C205.804 62.4835 206.756 66.8336 208.981 71.1213C211.964 76.8679 216.252 80.7894 218.54 79.8596C219.035 79.6586 219.405 79.2358 219.639 78.6028C220.447 76.4162 219.495 72.0673 217.27 67.7796C214.582 62.6001 210.833 58.905 208.445 58.905Z" fill="#2E93F7"/>
<path fill-rule="evenodd" clip-rule="evenodd" d="M218.31 79.7146C217.225 79.7146 215.87 79.0157 214.396 77.6804C212.553 76.0102 210.732 73.5371 209.268 70.7164C206.979 66.3074 206.045 61.9862 206.886 59.7083C207.143 59.0118 207.557 58.5428 208.116 58.3164C209.293 57.8382 210.971 58.507 212.838 60.1992C214.681 61.8695 216.503 64.3426 217.966 67.1633C220.255 71.5723 221.189 75.8935 220.348 78.1714C220.091 78.8679 219.677 79.3368 219.118 79.5632C218.87 79.6637 218.599 79.7146 218.31 79.7146ZM208.937 58.3938C208.674 58.3938 208.429 58.4389 208.203 58.5301C207.707 58.7323 207.337 59.155 207.103 59.788C206.296 61.9735 207.248 66.3224 209.473 70.6101C212.16 75.7896 215.909 79.4847 218.297 79.4859C218.56 79.4859 218.805 79.4408 219.031 79.3496C219.527 79.1474 219.897 78.7246 220.131 78.0917C220.938 75.9062 219.986 71.5573 217.761 67.2696C215.074 62.0901 211.325 58.3938 208.937 58.3938Z" fill="#2E93F7"/>
<path fill-rule="evenodd" clip-rule="evenodd" d="M218.277 79.6993C217.213 79.6993 215.877 79.0455 214.41 77.7876C212.525 76.1727 210.636 73.7482 209.09 70.9621C206.668 66.5993 205.6 62.2827 206.37 59.9668C206.604 59.2633 206.998 58.7816 207.544 58.5356C208.699 58.0147 210.388 58.6292 212.298 60.2671C214.183 61.8819 216.072 64.3065 217.618 67.0926C220.04 71.4553 221.106 75.7719 220.337 78.0879C220.104 78.7914 219.709 79.2719 219.164 79.5179C218.895 79.6392 218.599 79.6993 218.277 79.6993ZM208.443 58.583C208.153 58.583 207.883 58.6361 207.639 58.747C207.155 58.9653 206.803 59.3996 206.59 60.0395C205.851 62.2619 206.938 66.6074 209.291 70.8501C212.098 75.9071 215.886 79.4706 218.265 79.4717C218.555 79.4717 218.825 79.4174 219.069 79.3077C219.553 79.0894 219.905 78.6551 220.118 78.0151C220.856 75.7927 219.77 71.4473 217.416 67.2034C214.61 62.1464 210.822 58.583 208.443 58.583Z" fill="#2E93F7"/>
<path fill-rule="evenodd" clip-rule="evenodd" d="M218.528 80.554C217.464 80.554 216.128 79.9002 214.661 78.6423C212.776 77.0275 210.887 74.603 209.341 71.8169C206.919 67.4541 205.853 63.1375 206.622 60.8215C206.854 60.1181 207.249 59.6364 207.795 59.3904C208.95 58.8694 210.639 59.4839 212.549 61.1218C214.434 62.7367 216.323 65.1612 217.869 67.9473C220.291 72.3101 221.358 76.6267 220.589 78.9426C220.355 79.6461 219.961 80.1266 219.415 80.3726C219.147 80.4939 218.85 80.554 218.528 80.554ZM208.694 59.4377C208.404 59.4377 208.134 59.4908 207.89 59.6017C207.406 59.82 207.053 60.2544 206.841 60.8943C206.102 63.1167 207.189 67.4622 209.543 71.7048C212.691 77.381 217.078 81.1743 219.32 80.1624C219.803 79.9441 220.156 79.5098 220.369 78.8699C221.107 76.6475 220.021 72.302 217.668 68.0582C214.861 63.0012 211.073 59.4377 208.694 59.4377Z" fill="#2E93F7"/>
<path fill-rule="evenodd" clip-rule="evenodd" d="M219.701 80.4407C218.64 80.4418 217.301 79.8423 215.817 78.6861C213.852 77.1556 211.853 74.8269 210.188 72.1286C207.59 67.9194 206.35 63.701 207.028 61.3805C207.238 60.6655 207.622 60.1688 208.169 59.9043C209.317 59.3498 211.045 59.8985 213.036 61.4486C215.001 62.9791 217 65.3078 218.665 68.0061C221.263 72.2152 222.503 76.4336 221.825 78.7542C221.615 79.4692 221.232 79.9659 220.684 80.2304C220.392 80.3714 220.063 80.4407 219.701 80.4407ZM209.165 59.9216C208.837 59.9216 208.537 59.9828 208.27 60.1122C207.784 60.3478 207.44 60.796 207.25 61.4452C206.6 63.671 207.86 67.916 210.385 72.0073C213.372 76.8472 217.274 80.2131 219.688 80.2131C220.016 80.2131 220.316 80.1519 220.583 80.0225C221.07 79.7869 221.413 79.3387 221.603 78.6896C222.253 76.4637 220.994 72.2187 218.468 68.1274C215.482 63.2875 211.579 59.9216 209.165 59.9216Z" fill="#2E93F7"/>
<path fill-rule="evenodd" clip-rule="evenodd" d="M217.841 79.9038C216.757 79.9038 215.401 79.2061 213.927 77.8697C212.085 76.2005 210.264 73.7275 208.8 70.9067C206.511 66.4966 205.576 62.1754 206.419 59.8975C206.675 59.201 207.09 58.7332 207.648 58.5057C208.826 58.0274 210.504 58.6962 212.371 60.3885C214.214 62.0587 216.035 64.5318 217.499 67.3525C219.788 71.7627 220.722 76.0839 219.881 78.3617C219.623 79.0583 219.21 79.5261 218.65 79.7536C218.403 79.8541 218.132 79.9038 217.841 79.9038ZM208.469 58.5842C208.207 58.5842 207.962 58.6281 207.735 58.7205C207.239 58.9215 206.87 59.3442 206.635 59.9772C205.829 62.1627 206.781 66.5128 209.006 70.8005C211.693 75.9788 215.441 79.6751 217.83 79.6751C218.093 79.6751 218.338 79.6312 218.563 79.5388C219.06 79.3378 219.43 78.915 219.664 78.282C220.471 76.0954 219.519 71.7465 217.294 67.4588C214.605 62.2793 210.858 58.5842 208.469 58.5842Z" fill="#2E93F7"/>
<path fill-rule="evenodd" clip-rule="evenodd" d="M220.147 78.9243C219.152 78.9243 217.895 78.4704 216.472 77.5833C214.365 76.2699 212.132 74.1572 210.184 71.6357C207.133 67.6853 205.426 63.5789 205.838 61.1728C205.963 60.4428 206.281 59.908 206.782 59.5823C207.845 58.8938 209.608 59.2473 211.745 60.5791C213.851 61.8936 216.084 64.0051 218.032 66.5278C221.084 70.4771 222.789 74.5846 222.377 76.9895C222.253 77.7196 221.935 78.2544 221.433 78.5801C221.078 78.81 220.645 78.9243 220.147 78.9243ZM208.082 59.4644C207.63 59.4644 207.233 59.5661 206.908 59.7763C206.463 60.0651 206.179 60.5479 206.066 61.2121C205.672 63.5211 207.4 67.6529 210.367 71.4947C214.335 76.6315 219.243 79.7236 221.307 78.386C221.752 78.0973 222.036 77.6144 222.149 76.9514C222.545 74.6424 220.816 70.5095 217.849 66.6688C214.506 62.3406 210.496 59.4644 208.082 59.4644Z" fill="#2E93F7"/>
<path d="M190.876 22.7958H184.474V11.4458H190.876V22.7958Z" fill="#F9A600"/>
<path d="M187.906 11.4461H187.443V0.572021H187.906V11.4461Z" fill="#74717D"/>
<path d="M190.004 1.29143H185.322V0H190.004V1.29143Z" fill="#74717D"/>
<path fill-rule="evenodd" clip-rule="evenodd" d="M190.657 36.8501L188.343 36.678L188.597 33.2612L190.912 33.4333L190.657 36.8501ZM188.467 36.5717L190.55 36.7265L190.789 33.5396L188.704 33.3848L188.467 36.5717Z" fill="white"/>
<path fill-rule="evenodd" clip-rule="evenodd" d="M199.335 38.8972L197.102 38.2654L198.038 34.9688L200.271 35.6006L199.335 38.8972ZM197.244 38.1857L199.255 38.754L200.129 35.6803L198.118 35.1108L197.244 38.1857Z" fill="white"/>
<path d="M181.456 25.0447L181.251 27.4172L174.938 28.0525L175.405 25.5772L181.456 25.0447Z" fill="#B9DCF9"/>
<g style="mix-blend-mode:multiply" opacity="0.302">
<path d="M186.18 37.3036V35.9971L181.116 34.8894L186.18 37.3036Z" fill="#91C8FC"/>
</g>
<path d="M95.8885 73.7502L95.3214 74.0797L95.9187 74.4011L95.3517 74.7306L95.949 75.0509L95.3819 75.3804L95.9793 75.7018L95.4122 76.0313L96.0096 76.3515L95.4425 76.6811L96.0398 77.0024L95.5042 77.3134L96.0689 77.6173L95.5019 77.9468L96.0992 78.267L95.5321 78.5966L96.1295 78.9179L95.5624 79.2475L96.1598 79.5677L95.5927 79.8972L96.19 80.2186L95.623 80.5481L96.2203 80.8683L95.6381 81.2072L96.2518 81.5356L95.6847 81.8651L96.282 82.1865L95.715 82.516L96.3123 82.8362L95.7452 83.1658L96.3426 83.4871L95.7755 83.8167L96.3729 84.1369L95.8058 84.4664L96.4031 84.7878L95.8663 85.0987L96.4311 85.4026L95.864 85.7322L96.4613 86.0524L95.8943 86.3819L96.4916 86.7033L95.9246 87.0328L96.5219 87.353L95.9548 87.6826L96.5522 88.004L95.9851 88.3335L96.5825 88.6537L95.9967 88.9949L96.6139 89.3256L96.0468 89.6551L96.6442 89.9765L96.0771 90.306L96.6744 90.6262L96.1074 90.9558L96.7047 91.2772L96.1377 91.6067L96.735 91.9281L96.1679 92.2576L96.7653 92.5778L96.2296 92.8899L96.7944 93.1926L96.2273 93.5222L96.8247 93.8424L96.2576 94.1731L96.8549 94.4933L96.3729 94.7728L98.9218 94.8356L101.346 73.1331L95.1211 73.1575L95.1304 73.3427L95.8885 73.7502Z" fill="#A8A8A8"/>
<path fill-rule="evenodd" clip-rule="evenodd" d="M94.9268 73.2162L94.9477 73.0217C94.9512 72.9868 95.3739 69.4504 98.5155 69.3817C99.3795 69.3642 100.076 69.6227 100.588 70.1537C101.609 71.2098 101.524 72.953 101.52 73.0263L101.51 73.1905L94.9268 73.2162ZM98.6017 69.7299C98.5749 69.7299 98.5493 69.731 98.5225 69.731C96.0621 69.7846 95.4519 72.1554 95.325 72.8657L101.173 72.8435C101.167 72.3999 101.081 71.1644 100.337 70.3947C99.9093 69.9534 99.326 69.7299 98.6017 69.7299Z" fill="#0A2355"/>
<path d="M99.2829 70.3544C99.2829 70.6446 99.0475 70.8789 98.7584 70.8789C98.4682 70.8789 98.2339 70.6446 98.2339 70.3544C98.2339 70.0653 98.4682 69.8311 98.7584 69.8311C99.0475 69.8311 99.2829 70.0653 99.2829 70.3544Z" fill="#996407"/>
<path d="M137.96 52.7036C138.242 53.8983 138.292 54.8892 138.11 55.6787C137.927 56.467 137.629 57.6163 137.215 59.1231L131.807 60.9151C130.708 60.0942 130.066 58.903 129.881 57.3415C129.604 54.9998 132.161 50.6775 137.96 52.7036Z" fill="#282828"/>
<path d="M124.794 83.5293L136.454 83.2673C137.511 86.0748 138.085 91.0341 138.176 98.1452C138.268 105.255 137.946 115.591 137.215 129.15H131.132L131.853 108.936L130.516 92.6666L122.611 129.163L115.795 128.849C119.492 112.125 121.583 101.602 122.065 97.2777C122.546 92.953 123.456 88.371 124.794 83.5293Z" fill="#BCDDFD"/>
<path d="M134.827 127.584L134.71 127.581C134.714 127.448 135.06 114.25 135.06 107.819C135.06 101.389 133.711 84.5167 133.697 84.3467L133.814 84.3374C133.828 84.5074 135.176 101.385 135.176 107.819C135.176 114.252 134.83 127.451 134.827 127.584Z" fill="#91C8FC"/>
<path d="M119.508 128.204L119.392 128.19C120.218 121.13 127.883 85.5137 127.959 85.155L128.074 85.1795C127.997 85.5381 120.334 121.15 119.508 128.204Z" fill="#91C8FC"/>
<path d="M124.913 82.5083L136.666 83.9976L137.876 74.4062L139.077 76.912L144.151 74.2082C142.495 70.1269 140.977 67.3137 139.594 65.7696C137.523 63.4536 125.785 63.0542 123.808 65.0943C122.49 66.4543 120.718 69.1302 118.493 73.1242L123.408 75.6568L125.402 72.7783L124.913 82.5083Z" fill="#2242A3"/>
<path d="M124.819 83.2768C123.503 85.2831 122.635 86.883 122.218 88.0754C121.593 89.864 123.186 91.2939 124.679 90.8432C125.673 90.5428 127.835 88.4189 131.164 84.4692L136.92 84.5775L136.953 82.7994L124.897 81.9167L124.819 83.2768Z" fill="#0A2355"/>
<path d="M135.082 61.5987L134.857 63.7971L132.955 67.4814L131.211 63.23L131.671 60.4529L135.082 61.5987Z" fill="#A05544"/>
<path d="M137.681 56.7032C137.741 59.5176 137.093 61.3504 135.735 62.2016C134.755 62.8164 132.888 62.2074 132.045 61.2269C131.247 60.2989 131.205 58.628 131.45 57.155C131.6 56.2455 132.491 57.8047 133.327 55.4025C133.792 54.0681 134.756 55.1649 135.973 55.1894C137.134 55.2139 137.703 54.6258 137.681 56.7032Z" fill="#A05544"/>
<path d="M132.268 56.8616C131.311 56.4762 130.756 56.5403 130.606 57.0538C130.043 58.9774 131.69 59.5992 132.168 59.1544" fill="#A05544"/>
<path d="M135.667 60.4907C135.644 60.4546 134.748 60.1515 134.709 60.1713C134.672 60.1912 134.632 60.7285 135.103 60.7774C135.496 60.8182 135.689 60.5268 135.667 60.4907Z" fill="white"/>
<path d="M136.545 57.0913C136.419 57.1228 136.335 57.1811 136.329 57.1846C136.294 57.2091 136.286 57.2569 136.31 57.2918C136.335 57.3256 136.383 57.3349 136.418 57.3105C136.422 57.307 136.602 57.1881 136.806 57.2324C136.948 57.2627 137.073 57.3641 137.178 57.5343C137.2 57.5704 137.246 57.5832 137.284 57.5611C137.32 57.5389 137.332 57.4911 137.309 57.455C137.181 57.2464 137.023 57.1205 136.836 57.082C136.729 57.0587 136.628 57.0692 136.545 57.0913Z" fill="#001C26"/>
<path d="M134.542 56.6825C134.416 56.7152 134.332 56.7723 134.326 56.777C134.291 56.8003 134.283 56.8481 134.308 56.883C134.332 56.918 134.38 56.9262 134.415 56.9028C134.419 56.8993 134.599 56.7805 134.803 56.8236C134.945 56.8539 135.07 56.9565 135.175 57.1266C135.197 57.1628 135.244 57.1744 135.281 57.1523C135.317 57.1301 135.329 57.0835 135.306 57.0474C135.178 56.8387 135.02 56.7129 134.833 56.6732C134.725 56.6511 134.625 56.6616 134.542 56.6825Z" fill="#001C26"/>
<g style="mix-blend-mode:multiply" opacity="0.302">
<path d="M125.703 72.3521L126.643 69.3013L122.177 75.0582L123.408 75.6567L125.703 72.3521Z" fill="#2242A3"/>
</g>
<path d="M130.816 84.3211C129.76 83.1206 125.232 80.1082 121.797 77.9016L123.164 75.5518L118.767 73.2649L117.74 75.3411C116.238 77.4953 116.493 79.2687 118.505 80.6613C121.087 82.72 126.212 84.7217 126.972 85.3912C127.734 86.3926 131.179 88.8671 131.081 88.5829C131.176 88.7867 131.392 89.1523 131.647 88.8915C132.215 88.3093 131.873 85.5228 130.816 84.3211Z" fill="#A05544"/>
<path d="M113.22 131.836H121.343V128.636L116.635 128.562C114.129 128.875 112.991 129.967 113.22 131.836Z" fill="#2E93F7"/>
<path d="M123.034 129.738L115.563 128.557L115.863 126.655L123.334 127.836L123.034 129.738Z" fill="#91C8FC"/>
<path d="M139.771 132.08H131.982L131.866 128.879L135.772 128.806C138.629 129.119 139.962 130.21 139.771 132.08Z" fill="#2E93F7"/>
<path d="M130.766 129.395L138.315 128.919L138.194 126.998L130.645 127.475L130.766 129.395Z" fill="#91C8FC"/>
<g style="mix-blend-mode:multiply">
<path d="M135.379 59.6386C135.35 59.6386 135.324 59.6164 135.321 59.5873C135.317 59.5547 135.34 59.5267 135.372 59.5232C135.514 59.5069 135.61 59.4533 135.663 59.36C135.804 59.1129 135.61 58.6735 135.609 58.6688C135.595 58.6397 135.609 58.6047 135.638 58.5919C135.667 58.5791 135.701 58.5919 135.715 58.621C135.724 58.6408 135.935 59.1187 135.765 59.4171C135.692 59.5442 135.565 59.6188 135.386 59.6386C135.384 59.6386 135.381 59.6386 135.379 59.6386Z" fill="#A05544"/>
</g>
<path d="M134.728 57.9054C134.687 58.0604 134.605 58.1747 134.546 58.1583C134.485 58.1432 134.469 58.0045 134.51 57.8494C134.551 57.6933 134.631 57.5802 134.692 57.5954C134.751 57.6105 134.767 57.7492 134.728 57.9054Z" fill="#282828"/>
<path d="M136.72 58.358C136.679 58.5142 136.599 58.6273 136.538 58.6121C136.477 58.5958 136.462 58.4571 136.502 58.3021C136.543 58.1459 136.624 58.0328 136.684 58.048C136.744 58.0643 136.76 58.203 136.72 58.358Z" fill="#282828"/>
<path d="M129.858 56.758C129.227 55.2407 129.332 53.798 130.172 52.4286C131.71 49.924 133.58 50.1044 134.697 50.3688C136.414 50.7728 137.445 51.362 137.792 52.1375L140.145 51.2712C140.635 51.1547 141.15 51.1513 141.635 51.2852C142.222 51.447 142.745 51.7882 142.071 52.509C141.597 53.0143 140.303 53.8877 138.191 55.1313C138.447 53.7503 137.716 53.168 135.997 53.387C134.278 53.6047 132.232 54.7284 129.858 56.758Z" fill="#2E93F7"/>
<g style="mix-blend-mode:multiply" opacity="0.302">
<path d="M142.076 52.5107C142.752 51.791 142.229 51.4487 141.642 51.2868C141.155 51.1541 140.642 51.1564 140.151 51.274L138.019 52.0868C134.676 53.1744 131.634 54.7662 129.822 56.6432C129.839 56.6933 129.853 56.7317 129.865 56.7597C132.238 54.7301 134.285 53.6064 136.004 53.3886C137.722 53.1709 138.454 53.7519 138.198 55.133C140.31 53.8905 141.603 53.016 142.076 52.5107Z" fill="#91C8FC"/>
</g>
<path d="M129.287 63.4469L131.044 62.01L131.869 63.4201L132.924 67.6901L131.502 64.8873L130.479 65.65L129.287 63.4469Z" fill="#3E65C6"/>
<path d="M136.977 64.5832L135.832 62.5605L134.757 63.7902L132.924 67.6898L134.842 65.3004L135.786 66.3834L136.977 64.5832Z" fill="#3E65C6"/>
<path d="M121.001 68.9321C121.673 69.9242 121.771 70.7614 121.3 71.4461C120.828 72.1308 120.055 72.4068 118.978 72.274L121.001 68.9321Z" fill="#91C8FC"/>
<path d="M143.582 72.8309C142.385 72.8484 141.63 72.4723 141.315 71.7026C141.001 70.9329 141.195 70.1341 141.896 69.3074L143.582 72.8309Z" fill="#91C8FC"/>
<path d="M132.664 60.6448C132.676 62.1085 133.053 63.0586 133.797 63.4941C134.98 64.1881 135.646 63.7119 136.013 63.1704C136.257 62.8095 136.596 62.0013 137.027 60.7461C137.277 60.1126 137.089 60.1371 136.46 60.8194C135.518 61.843 134.798 61.4878 134.258 61.2154C133.717 60.9429 132.469 58.6187 132.664 60.6448Z" fill="#282828"/>
<path d="M169.501 91.7315H91.3667V90.6475H169.501V91.7315Z" fill="#A56C11"/>
<path d="M163.101 92.5991H99.6514V91.7944H163.101V92.5991Z" fill="#0A2355"/>
<path d="M162.328 132.093L157.792 92.6122L158.023 92.5854L162.56 132.066L162.328 132.093Z" fill="#0A2355"/>
<path d="M166.612 132.093L162.075 92.6122L162.307 92.5854L166.844 132.066L166.612 132.093Z" fill="#0A2355"/>
<path d="M99.9944 132.093L99.7627 132.066L104.3 92.5854L104.531 92.6122L99.9944 132.093Z" fill="#0A2355"/>
<path d="M104.354 132.093L104.122 132.066L108.66 92.5854L108.89 92.6122L104.354 132.093Z" fill="#0A2355"/>
<g style="mix-blend-mode:multiply" opacity="0.302">
<path d="M137.876 74.4059V70.6099L140.299 76.2608L139.078 76.9117L137.876 74.4059Z" fill="#2242A3"/>
</g>
<path d="M139.448 76.7142L143.778 74.4075L146.4 80.4928L152.667 87.406L150.74 89.984C146.507 87.0194 143.88 84.8582 142.86 83.5005C142.139 82.5422 141.002 80.2797 139.448 76.7142Z" fill="#A05544"/>
<g style="mix-blend-mode:multiply" opacity="0.302">
<path d="M118.767 73.2649L123.164 75.5518L122.702 76.3471L118.243 74.3245L118.767 73.2649Z" fill="#A05544"/>
</g>
<g style="mix-blend-mode:multiply" opacity="0.302">
<path d="M139.448 76.7142L143.778 74.4075L144.151 75.275L139.837 77.5887L139.448 76.7142Z" fill="#A05544"/>
</g>
<path d="M148.366 88.5783L151.336 85.4507C152.364 86.8585 153.272 87.8937 154.062 88.555C155.245 89.5483 157.001 90.2376 157.777 90.6825C158.555 91.1273 159.763 92.1962 157.236 92.1962C154.708 92.1962 150.795 90.764 148.716 90.764C147.33 90.764 147.54 90.3867 149.344 89.6333L148.366 88.5783Z" fill="#2E93F7"/>
<path fill-rule="evenodd" clip-rule="evenodd" d="M134.178 90.7445L133.915 90.6526C133.791 90.6095 130.896 89.572 130.114 87.7182C129.837 87.0603 129.855 86.3826 130.169 85.7037C130.493 85.0028 131.016 84.5207 131.722 84.2715C133.6 83.6101 136.133 84.8467 136.239 84.9003L136.481 85.0202L134.178 90.7445ZM132.96 84.6592C132.598 84.6592 132.241 84.7058 131.914 84.8211C131.355 85.0191 130.957 85.387 130.697 85.9483C130.452 86.4793 130.436 86.9846 130.651 87.4923C131.21 88.8139 133.144 89.7117 133.848 90.0016L135.736 85.3113C135.241 85.1006 134.076 84.6592 132.96 84.6592Z" fill="#4C4C4C"/>
<path d="M127.692 81.4243L125.175 85.2634L126.944 85.657C128.534 87.5632 129.831 88.7357 130.837 89.1724C132.347 89.828 133.927 88.1151 133.852 86.9821C133.795 86.1146 132.987 86.2381 132.062 85.0049C134.051 85.381 135.024 85.4323 134.982 85.1586C134.92 84.7581 133.492 84.1316 130.7 83.2804L127.692 81.4243Z" fill="#2E93F7"/>
<path d="M134.811 90.3752L134.894 90.9073L135.317 90.5452L135.4 91.0773L135.823 90.7164L135.907 91.2473L136.33 90.8864L136.412 91.4173L136.835 91.0564L136.919 91.5885L137.342 91.2275L137.421 91.7294L137.82 91.3882L137.903 91.9192L138.326 91.5582L138.409 92.0904L138.832 91.7282L138.916 92.2604L139.339 91.8994L139.421 92.4304L139.844 92.0694L139.928 92.6016L140.35 92.2394L140.435 92.7844L140.87 92.4141L140.952 92.9462L141.375 92.5853L141.459 93.1162L141.882 92.7553L141.966 93.2862L142.388 92.9253L142.471 93.4574L142.894 93.0964L142.977 93.6274L143.4 93.2664L143.479 93.7683L143.879 93.4271L143.961 93.9593L144.385 93.5971L144.468 94.1293L144.891 93.7683L144.974 94.2993L145.397 93.9383L145.48 94.4693L145.902 94.1083L145.986 94.6405L146.409 94.2795L146.495 94.8279L146.932 94.4553L147.016 94.9863L147.438 94.6253L147.521 95.1563L147.944 94.7953L148.028 95.3275L148.45 94.9665L148.533 95.4975L148.957 95.1365L149.039 95.6675L149.462 95.3065L149.541 95.8096L149.941 95.4672L150.024 95.9994L150.447 95.6384L150.53 96.1694L150.953 95.8084L151.024 96.2602L151.829 94.3296L136.342 85.0444L134.129 90.7851L134.274 90.834L134.811 90.3752Z" fill="#A8A8A8"/>
<path d="M105.257 84.4188H103.975V69.4385H105.257V84.4188Z" fill="#74717D"/>
<path d="M102.001 84.4187H106.985L108.314 85.738H102.001V85.0778" fill="#4C4A52"/>
<g style="mix-blend-mode:multiply">
<path d="M131.667 58.2122C131.665 58.2122 131.664 58.2122 131.663 58.2122C131.63 58.2099 131.606 58.1819 131.608 58.1504C131.635 57.7518 131.572 57.4895 131.428 57.3905C131.295 57.2984 131.132 57.3718 131.129 57.373C131.1 57.3858 131.066 57.373 131.052 57.3438C131.04 57.3147 131.052 57.2809 131.081 57.2669C131.091 57.2622 131.308 57.1655 131.494 57.2937C131.676 57.4196 131.754 57.7098 131.725 58.1574C131.723 58.1889 131.697 58.2122 131.667 58.2122Z" fill="#A05544"/>
</g>
<path opacity="0.322" d="M135.938 57.2669C135.938 57.2692 135.937 57.2716 135.935 57.2751L133.147 56.5461L131.211 56.6603L132.949 57.5708L132.95 57.5685C132.952 58.1228 133.169 58.7399 134.032 58.9728C134.915 59.2115 135.439 58.7609 135.741 58.2707C135.739 58.8284 135.949 59.4572 136.823 59.6936C137.962 60.001 138.653 59.4502 138.899 58.0401L135.938 57.2669Z" fill="white"/>
<path d="M122.16 62.7002H91.3667V63.9671H122.16V62.7002Z" fill="#996407"/>
<path d="M122.202 63.9263H91.3691V65.8634H122.202V63.9263Z" fill="#ECF4FA"/>
<path d="M114.851 59.164L114.52 59.0697L117.382 49.3875L117.481 49.4806L114.851 59.164Z" fill="#0A2355"/>
<path d="M113.671 62.5145C113.176 62.3736 112.889 61.8589 113.029 61.3641L114.114 57.5377C114.254 57.0429 114.769 56.7553 115.264 56.8961C115.759 57.0359 116.046 57.5517 115.907 58.0466L114.822 61.8717C114.682 62.3666 114.166 62.6542 113.671 62.5145Z" fill="#2E93F7"/>
<path d="M114.241 62.249L113.228 62.4656L111.353 53.7056L112.366 53.489L114.241 62.249Z" fill="#2242A3"/>
<path d="M111.51 52.2786L112.366 53.4884L111.353 53.705L111.51 52.2786Z" fill="#B7756A"/>
<path fill-rule="evenodd" clip-rule="evenodd" d="M115.535 62.719H112.484L111.704 56.168H116.217L115.535 62.719ZM112.588 62.6026H115.43L116.088 56.2844H111.836L112.588 62.6026Z" fill="#4C4A52"/>
<path d="M101.356 62.8078H109.305V60.437H101.356V62.8078Z" fill="#2242A3"/>
<path d="M98.5679 53.7438C98.5679 52.2033 99.8161 50.9539 101.357 50.9539H103.588H104.633C105.982 50.9539 107.074 52.0472 107.074 53.3945V56.5326V60.437H103.588V56.5326H101.357C99.8161 56.5326 98.5679 55.2844 98.5679 53.7438Z" fill="#F9A600"/>
<path d="M98.5674 53.3843H91.4551V53.6637H98.5674V53.3843Z" fill="#2242A3"/>
<path d="M107.074 53.7052V55.6952C103.387 56.0353 101.585 55.7174 101.667 54.7427C101.749 53.767 103.551 53.4211 107.074 53.7052Z" fill="#2242A3"/>
<path d="M99.0473 52.1787V55.3459C98.5955 55.0059 98.3242 54.4447 98.2345 53.6634C98.1449 52.882 98.415 52.3871 99.0473 52.1787Z" fill="#2242A3"/>
<path d="M374.516 81.199H318.984V81.0376H374.516V81.199Z" fill="#91C8FC"/>
<path d="M374.516 86.2029H318.984V86.0415H374.516V86.2029Z" fill="#91C8FC"/>
<path d="M374.516 76.1944H318.984V76.033H374.516V76.1944Z" fill="#91C8FC"/>
<path d="M374.516 71.19H318.984V71.0286H374.516V71.19Z" fill="#91C8FC"/>
<path d="M374.678 61.3431H319.146V61.1816H374.678V61.3431Z" fill="#91C8FC"/>
<path d="M374.678 66.3472H319.146V66.1858H374.678V66.3472Z" fill="#91C8FC"/>
<path d="M374.678 56.3387H319.146V56.1772H374.678V56.3387Z" fill="#91C8FC"/>
<path d="M374.678 51.6573H319.146V51.4958H374.678V51.6573Z" fill="#91C8FC"/>
<path d="M321.281 90.1614H321.165V47.7095H321.281V90.1614Z" fill="#91C8FC"/>
<path d="M327.131 90.1614H327.015V47.7095H327.131V90.1614Z" fill="#91C8FC"/>
<path d="M333.464 90.1614H333.349V47.7095H333.464V90.1614Z" fill="#91C8FC"/>
<path d="M339.837 90.1614H339.721V47.7095H339.837V90.1614Z" fill="#91C8FC"/>
<path d="M346.171 90.1614H346.056V47.7095H346.171V90.1614Z" fill="#91C8FC"/>
<path d="M352.505 90.1614H352.389V47.7095H352.505V90.1614Z" fill="#91C8FC"/>
<path d="M359.001 90.1614H358.885V47.7095H359.001V90.1614Z" fill="#91C8FC"/>
<path d="M365.173 90.1614H365.057V47.7095H365.173V90.1614Z" fill="#91C8FC"/>
<path d="M371.403 90.1614H371.287V47.7095H371.403V90.1614Z" fill="#91C8FC"/>
<path d="M359.267 61.3847C359.094 60.7534 361.379 60.1268 361.552 60.7581C361.726 61.3893 361.354 62.0415 360.723 62.214C360.091 62.3878 359.44 62.016 359.267 61.3847Z" fill="#2242A3"/>
<path d="M347.88 89.5615H366.963V90.6434H347.88V89.5615Z" fill="#BFBFBF"/>
<path d="M365.343 89.6771C364.294 84.1682 361.583 81.4276 357.213 81.4578C352.842 81.4867 350.268 84.2261 349.494 89.6771H365.343Z" fill="#BFBFBF"/>
<g style="mix-blend-mode:multiply" opacity="0.302">
<path d="M358.366 81.4941C361.047 82.803 362.742 85.3189 363.451 89.0405H349.68C349.624 89.2907 349.586 89.4911 349.565 89.6405H365.414C364.482 84.749 362.133 82.0328 358.366 81.4941Z" fill="#BFBFBF"/>
</g>
<path d="M327.971 89.201C327.971 90.0593 327.275 90.7543 326.417 90.7543C325.559 90.7543 324.863 90.0593 324.863 89.201C324.863 88.3427 325.559 87.6477 326.417 87.6477C327.275 87.6477 327.971 88.3427 327.971 89.201Z" fill="#D85616"/>
<path d="M322.993 88.7795C322.993 89.7779 322.184 90.5876 321.184 90.5876C320.186 90.5876 319.376 89.7779 319.376 88.7795C319.376 87.7799 320.186 86.9702 321.184 86.9702C322.184 86.9702 322.993 87.7799 322.993 88.7795Z" fill="#D85616"/>
<path d="M319.308 87.5933L320.313 87.2748L320.411 88.6069L320.779 87.2493L322.024 86.735L320.732 87.0142L320.281 86.2034H319.953L320.381 87.0536L319.308 87.5933Z" fill="#244721"/>
<path d="M306.526 75.1686C305.794 72.3632 304.531 71.3358 302.738 72.0887C300.946 72.8404 300.442 74.1933 301.228 76.1474C299.955 76.4856 299.426 77.3092 299.643 78.6169C299.861 79.9246 300.893 80.4586 302.738 80.2177V75.1686H306.526Z" fill="#CCCCCC"/>
<path d="M302.796 68.9905C302.796 69.2456 302.59 69.4532 302.335 69.4532C302.079 69.4532 301.873 69.2456 301.873 68.9905C301.873 68.7354 302.079 68.5291 302.335 68.5291C302.59 68.5291 302.796 68.7354 302.796 68.9905Z" fill="#CCCCCC"/>
<path d="M362.244 44.2124H372.731L370.229 47.9062H364.938L362.244 44.2124Z" fill="#C1D7E5"/>
<path d="M373.745 49.7107H350.742V50.9976H373.745V49.7107Z" fill="#F9A600"/>
<path d="M360.46 44.853C360.46 47.5356 358.284 49.7109 355.602 49.7109C352.918 49.7109 350.743 47.5356 350.743 44.853C350.743 42.1692 352.918 39.9939 355.602 39.9939C358.284 39.9939 360.46 42.1692 360.46 44.853Z" fill="#D5E8F7"/>
<path d="M362.244 46.0181H372.731L370.229 49.7107H364.938L362.244 46.0181Z" fill="#D5E8F7"/>
<path d="M371.874 63.4364C371.237 62.2005 371.246 58.7499 371.254 55.7059C371.261 53.1426 371.268 50.7217 370.869 50.4275C370.837 50.4032 370.803 50.3974 370.765 50.409C369.649 50.7541 369.951 52.6445 369.954 52.663L369.841 52.6827C369.827 52.6005 369.519 50.6719 370.73 50.2989C370.805 50.2758 370.876 50.2885 370.939 50.3337C371.363 50.6476 371.379 52.5796 371.37 55.7059C371.362 58.7372 371.352 62.1727 371.977 63.3832L371.874 63.4364Z" fill="#0A2355"/>
<path d="M371.992 63.1648L375.001 65.2138C374.199 66.5123 373.29 66.8749 372.273 66.3026C371.257 65.7304 371.163 64.6845 371.992 63.1648Z" fill="#0A2355"/>
<path d="M330.937 59.3681C330.236 58.3731 329.846 57.0468 329.764 55.3893C329.641 52.9036 331.784 53.0148 334.423 53.3333C337.953 53.7584 343.013 53.1352 336.823 62.148C336.482 62.6426 334.52 61.716 330.937 59.3681Z" fill="#CE8402"/>
<path d="M337.049 64.8138L336.716 60.8848C337.7 60.7863 338.088 58.706 337.413 58.2137C336.9 57.8385 336.388 57.9033 335.878 58.4072C335.449 59.1195 335.077 59.3663 334.763 59.1485C334.502 58.9666 334.448 57.5489 334.222 57.2014C333.589 56.2272 331.904 54.8141 331.245 55.8288C330.585 56.8423 330.907 59.8493 331.271 61.5682C331.513 62.7138 332.098 63.2918 333.025 63.3045L333.235 65.1439C332.863 65.2018 334.134 65.0918 337.049 64.8138Z" fill="#F4B7A2"/>
<path d="M313.655 72.6542C312.638 71.6152 312.062 70.6086 311.926 69.6356C311.723 68.1762 311.383 67.5982 311.044 67.7001C310.704 67.802 310.84 69.6901 311.044 70.1719C311.248 70.6538 307.103 69.4202 305.424 70.1719C303.745 70.9225 306.087 71.2051 306.902 71.6592C307.129 71.7854 304.779 71.2781 305.63 71.9604C306.5 72.6588 308.348 73.3897 309.518 74.0766C310.331 74.5538 310.913 75.0125 311.262 75.4515L313.655 72.6542Z" fill="#F4B7A2"/>
<path d="M365.909 56.0156L353.369 59.4546C353.354 61.7272 355.73 62.1987 360.496 60.8701C365.022 59.6075 366.826 57.9894 365.909 56.0156Z" fill="#2E93F7"/>
<g style="mix-blend-mode:multiply" opacity="0.302">
<path d="M356.305 61.4749C355.517 61.0776 355.125 60.5344 355.129 59.8475L366.25 56.7977C366.271 56.4815 366.235 56.222 366.14 56.0193L353.602 59.4583C353.594 60.6514 354.496 61.3232 356.305 61.4749Z" fill="#2E93F7"/>
</g>
<path d="M358.212 66.9023C358.282 66.6854 358.557 65.9788 359.039 64.7824C359.76 62.9867 359.235 60.665 359.671 61.2656C360.167 61.9477 360.398 62.9832 360.364 64.3731C362.43 63.8216 362.753 62.8234 361.333 61.3787C359.374 59.387 364.354 61.2434 363.15 63.6362C363.444 63.2071 364.02 62.9925 364.878 62.9925C365.526 62.9925 364.977 63.7225 365.099 63.8682C365.459 64.3055 365.356 64.653 364.892 64.8069C364.948 65.1381 364.897 65.4506 364.738 65.7444C364.411 66.3566 361.756 67.5437 361.343 67.7022C361.068 67.8084 360.853 68.1104 360.696 68.6071L358.212 66.9023Z" fill="#F4B7A2"/>
<path d="M334.702 127.393L330.801 127.72C330.078 128.868 329.417 129.512 328.813 129.656C325.022 130.556 325.203 131.12 325.528 131.379C325.56 131.405 326.964 131.506 329.74 131.684C331.378 131.485 333.101 131.268 334.911 131.037L334.702 127.393Z" fill="#2242A3"/>
<path d="M347.833 126.672L344.361 127.819C344.138 128.81 344.012 129.514 343.981 129.93C343.949 130.346 344.023 130.918 344.204 131.648L349.363 130.045C349.086 129.028 348.807 128.386 348.526 128.117C348.243 127.85 348.013 127.367 347.833 126.672Z" fill="#2242A3"/>
<path d="M342.833 82.8442L329.578 83.2728C329.77 90.964 329.831 96.62 329.759 100.241C329.687 103.862 329.694 113.481 329.777 129.1L335.892 128.626L335.554 109.628L337.283 94.9636L343.159 129.136L349.028 128.014C346.881 115.262 345.639 108.021 345.304 106.29C344.971 104.558 344.146 96.7439 342.833 82.8442Z" fill="#91C8FC"/>
<path d="M343.275 73.7302C347.809 77.116 351.3 78.5997 353.75 78.1816C355.299 77.9175 362.104 69.4746 362.577 68.2815C360.446 66.4746 359.165 65.4842 358.734 65.3116C357.534 66.5858 353.073 71.2874 351.967 71.5074C346.211 68.2815 344.368 65.4715 340.493 65.19C338.46 64.9966 337.563 64.2425 337.803 62.9255L332.426 63.3669C332.952 64.6282 332.985 65.4043 332.525 65.6939C330.808 65.9765 327.297 67.4649 325.141 70.1151C323.661 71.9325 321.936 74.204 319.963 76.9283L314.149 72.1144L311.349 75.3878C315.989 81.1793 319.204 83.7924 320.996 83.2283C323.382 82.4754 326.163 79.7789 329.339 75.1376L329.778 89.6813L344.343 88.9515L343.275 73.7302Z" fill="#BCDDFD"/>
<path d="M333.094 57.6271C333.101 57.6271 333.108 57.6248 333.115 57.6224C333.153 57.6062 333.172 57.561 333.156 57.5216C333.15 57.5088 333.024 57.2155 332.755 57.154C332.578 57.1146 332.389 57.1842 332.192 57.3604C332.161 57.3882 332.159 57.4369 332.186 57.4682C332.214 57.4995 332.263 57.503 332.294 57.474C332.452 57.3337 332.596 57.2758 332.721 57.3036C332.911 57.3465 333.013 57.5784 333.014 57.5807C333.028 57.6132 333.061 57.6317 333.094 57.6271Z" fill="#CE8402"/>
<path d="M332.531 58.2696C332.555 58.4737 332.624 58.6325 332.686 58.6256C332.747 58.6175 332.777 58.447 332.754 58.2441C332.73 58.0401 332.66 57.8812 332.599 57.8882C332.537 57.8951 332.507 58.0667 332.531 58.2696Z" fill="#282828"/>
<path d="M331.743 57.7658C331.75 57.7646 331.757 57.7635 331.764 57.76C331.802 57.7438 331.821 57.6985 331.805 57.6603C331.8 57.6475 331.672 57.353 331.403 57.2927C331.227 57.2521 331.038 57.3217 330.841 57.498C330.81 57.5269 330.807 57.5745 330.835 57.6069C330.864 57.6383 330.912 57.6406 330.944 57.6127C331.101 57.4713 331.245 57.4133 331.37 57.4423C331.56 57.4852 331.662 57.7171 331.663 57.7194C331.677 57.7519 331.71 57.7693 331.743 57.7658Z" fill="#CE8402"/>
<path d="M331.18 58.4085C331.204 58.6114 331.273 58.7702 331.335 58.7633C331.396 58.7563 331.427 58.5847 331.403 58.3818C331.379 58.1777 331.309 58.0189 331.248 58.0259C331.186 58.034 331.156 58.2044 331.18 58.4085Z" fill="#282828"/>
<path d="M330.843 66.3249L331.732 85.9397L329.486 86.0346L329.471 87.1038L330.886 87.0435L330.753 106.153L344.02 106.054L342.759 86.2814L344.055 86.1991L343.981 85.0918L341.411 85.1613L340.469 65.3288L339.539 65.1365L339.957 74.5269L332.15 74.5512L331.684 65.8963L330.843 66.3249Z" fill="#2242A3"/>
<path d="M339.025 58.4267C337.275 56.2769 336.039 54.9298 335.316 54.3854C333.796 53.241 332.317 52.9028 330.877 53.3684L334.312 48.2719C332.718 45.822 333.043 44.2421 335.289 43.5321C337.15 42.9425 338.265 43.7058 338.633 45.8209C339.52 43.722 340.793 43.2853 342.451 44.5132C344.111 45.7398 344.284 47.1286 342.971 48.6796C344.716 48.8035 345.578 49.568 345.556 50.9719C345.523 53.1136 344.266 53.8618 341.788 53.2155L339.025 58.4267Z" fill="#BCDDFD"/>
<path d="M342.408 104.691H331.394L331.282 88.5812L331.398 88.5801L331.51 104.575H342.408V104.691Z" fill="#B9DCF9"/>
<g style="mix-blend-mode:multiply">
<path d="M333.266 63.3516C333.232 63.347 333.208 63.3157 333.212 63.281C333.216 63.2451 333.248 63.2196 333.283 63.2242C333.347 63.2312 334.849 63.3783 335.505 61.5551C335.518 61.5215 335.553 61.5041 335.588 61.5169C335.622 61.5285 335.639 61.5655 335.626 61.5991C334.936 63.5208 333.285 63.354 333.269 63.3528C333.268 63.3528 333.267 63.3516 333.266 63.3516Z" fill="#F4B7A2"/>
</g>
<g style="mix-blend-mode:multiply">
<path d="M336.287 58.8836C336.273 58.8813 336.261 58.8755 336.251 58.8639C336.226 58.8384 336.227 58.7978 336.253 58.7734C336.275 58.7526 336.777 58.2784 337.213 58.5543C337.243 58.574 337.252 58.6134 337.234 58.6436C337.214 58.6737 337.174 58.683 337.144 58.6633C336.793 58.4418 336.347 58.8627 336.343 58.8662C336.327 58.8813 336.307 58.8871 336.287 58.8836Z" fill="#F4B7A2"/>
</g>
<g style="mix-blend-mode:multiply" opacity="0.302">
<path d="M328.693 75.2988L329.81 73.3135L328.847 80.4127L328.693 75.2988Z" fill="#BCDDFD"/>
</g>
<g style="mix-blend-mode:multiply" opacity="0.302">
<path d="M342.629 73.8915L341.854 73.3135L342.969 78.7193L342.629 73.8915Z" fill="#BCDDFD"/>
</g>
<path d="M309.167 72.2255C309.167 72.3159 309.092 72.3901 309.002 72.3901C308.911 72.3901 308.838 72.3159 308.838 72.2255C308.838 72.1351 308.911 72.062 309.002 72.062C309.092 72.062 309.167 72.1351 309.167 72.2255Z" fill="#0A2355"/>
<path d="M308.013 74.2623C308.013 74.3527 307.94 74.4269 307.849 74.4269C307.759 74.4269 307.685 74.3527 307.685 74.2623C307.685 74.1719 307.759 74.0977 307.849 74.0977C307.94 74.0977 308.013 74.1719 308.013 74.2623Z" fill="#0A2355"/>
<path d="M309.822 74.59C309.822 74.6804 309.749 74.7546 309.657 74.7546C309.567 74.7546 309.494 74.6804 309.494 74.59C309.494 74.4996 309.567 74.4265 309.657 74.4265C309.749 74.4265 309.822 74.4996 309.822 74.59Z" fill="#0A2355"/>
<path d="M309.493 71.7347C309.493 71.8252 309.419 71.8982 309.329 71.8982C309.238 71.8982 309.165 71.8252 309.165 71.7347C309.165 71.6431 309.238 71.5701 309.329 71.5701C309.419 71.5701 309.493 71.6431 309.493 71.7347Z" fill="#0A2355"/>
<path d="M309.986 72.2255C309.986 72.3159 309.911 72.3901 309.821 72.3901C309.73 72.3901 309.656 72.3159 309.656 72.2255C309.656 72.1351 309.73 72.062 309.821 72.062C309.911 72.062 309.986 72.1351 309.986 72.2255Z" fill="#0A2355"/>
<g style="mix-blend-mode:multiply">
<path d="M332.03 59.661C332.029 59.661 332.028 59.661 332.027 59.6598C331.903 59.654 331.805 59.6065 331.738 59.5184C331.578 59.3097 331.656 58.9456 331.659 58.9305C331.666 58.8992 331.696 58.8795 331.729 58.8853C331.76 58.8922 331.78 58.9236 331.773 58.9549C331.772 58.9583 331.703 59.2818 331.831 59.4488C331.876 59.5091 331.943 59.5404 332.032 59.545C332.065 59.5462 332.089 59.5729 332.088 59.6053C332.087 59.6366 332.06 59.661 332.03 59.661Z" fill="#F4B7A2"/>
</g>
<path d="M332.881 60.5928L331.637 60.7862C332.243 61.3364 332.658 61.2727 332.881 60.5928Z" fill="white"/>
<path d="M334.175 60.4651C333.29 60.0725 332.586 59.9045 332.062 59.959C331.539 60.0134 331.036 60.3366 330.555 60.9285L334.175 60.4651Z" fill="#CE8402"/>
<path d="M315.743 88.1718H302.74V75.1687H315.743V88.1718Z" fill="#2E93F7"/>
<g style="mix-blend-mode:multiply" opacity="0.302">
<path d="M313.993 75.1687V86.6359H302.74V88.1718H315.743V75.1687H313.993Z" fill="#2E93F7"/>
</g>
<path d="M316.665 90.6456H301.816V89.6772H316.665V90.6456Z" fill="#0A2355"/>
<path d="M312.69 90.0259L312.05 88.4842H306.593L306.048 89.8568L305.725 89.7294L306.357 88.1367H312.282L313.01 89.8927L312.69 90.0259Z" fill="#0A2355"/>
<path d="M304.65 77.2531H302.915C302.674 77.2531 302.462 77.1176 302.362 76.8986C302.262 76.6797 302.361 76.3311 302.519 76.1481L302.739 75.8828V76.4226C302.671 76.5013 302.635 76.6589 302.677 76.7539C302.721 76.8488 302.81 76.9056 302.915 76.9056H304.65C304.723 76.9056 304.793 76.8743 304.841 76.821L305.052 76.2257L305.413 76.2268L305.152 76.9902L305.134 77.0122C305.021 77.1627 304.839 77.2531 304.65 77.2531Z" fill="#2242A3"/>
<path d="M371.383 92.014H293.963V90.646H371.383V92.014Z" fill="#F9A600"/>
<path d="M299.504 132.029H298.089V92.0137H299.504V132.029Z" fill="#F9A600"/>
<path d="M305.748 130.112H304.295V92.0146H305.748V130.112Z" fill="#F9A600"/>
<path d="M360.756 132.029H359.342V92.0137H360.756V132.029Z" fill="#F9A600"/>
<path d="M367.09 129.951H365.637V92.0146H367.09V129.951Z" fill="#F9A600"/>
<rect x="32.2856" y="50.366" width="6.6186" height="2.7443" rx="1" fill="#CECECE"/>
<rect x="28.5728" y="53.7563" width="6.6186" height="2.7443" rx="1" fill="#CECECE"/>
<rect x="24.0532" y="57.1462" width="6.94146" height="2.7443" rx="1" fill="#CECECE"/>
<rect x="35.8374" y="53.7563" width="6.6186" height="2.7443" rx="1" fill="#CECECE"/>
<rect x="31.6401" y="57.1462" width="7.10289" height="2.7443" rx="1" fill="#CECECE"/>
<rect x="35.1919" y="61.0203" width="7.10289" height="2.7443" rx="1" fill="#CECECE"/>
<rect x="39.3892" y="57.1462" width="6.78003" height="2.7443" rx="1" fill="#CECECE"/>
<rect x="42.9409" y="61.0203" width="6.78003" height="2.7443" rx="1" fill="#CECECE"/>
<rect x="38.9048" y="64.5718" width="6.78003" height="2.7443" rx="1" fill="#CECECE"/>
<rect x="248.44" y="41.9719" width="7.10289" height="2.7443" rx="1" fill="#CECECE"/>
<rect x="248.117" y="48.9131" width="7.10289" height="2.7443" rx="1" fill="#CECECE"/>
<rect x="252.152" y="45.5232" width="6.78003" height="2.7443" rx="1" fill="#CECECE"/>
<rect x="255.866" y="48.9131" width="6.78003" height="2.7443" rx="1" fill="#CECECE"/>
<rect x="251.345" y="52.3032" width="6.78003" height="2.7443" rx="1" fill="#CECECE"/>
<rect width="6.78003" height="2.7443" rx="1" transform="matrix(-1 0 0 1 25.3447 75.7104)" fill="#CECECE"/>
<rect width="6.78003" height="2.7443" rx="1" transform="matrix(-1 0 0 1 29.2192 79.262)" fill="#CECECE"/>
<rect width="6.78003" height="2.7443" rx="1" transform="matrix(-1 0 0 1 126.561 33.7388)" fill="#CECECE"/>
<rect width="6.78003" height="2.7443" rx="1" transform="matrix(-1 0 0 1 130.273 37.2903)" fill="#CECECE"/>
<rect x="69.4141" y="64.0872" width="6.78003" height="2.7443" rx="1" fill="#CECECE"/>
<rect x="66.0244" y="67.9617" width="6.78003" height="2.7443" rx="1" fill="#CECECE"/>
</svg>
